<?xml version="1.0" standalone="no"?>
<!DOCTYPE svg PUBLIC "-//W3C//DTD SVG 1.1//EN" "http://www.w3.org/Graphics/SVG/1.1/DTD/svg11.dtd" >
<svg xmlns="http://www.w3.org/2000/svg">
<metadata>
This is a custom SVG webfont generated by Fontspring.
Designer    : Travis Kochel
Foundry     : Travis Kochel
Foundry URL : httpwwwtraviskochelcomtktype
</metadata>
<defs>
<font id="webfontfvsbZZP0" horiz-adv-x="678" >
<font-face units-per-em="1000" ascent="741" descent="-259" />
<missing-glyph horiz-adv-x="225" />
<glyph unicode=" "  horiz-adv-x="225" />
<glyph unicode="&#x09;" horiz-adv-x="225" />
<glyph unicode="&#xa0;" horiz-adv-x="225" />
<glyph unicode="!" horiz-adv-x="255" d="M72 186l-10 479q40 8 85 8q15 0 47 -2l-10 -479q-30 -8 -73 -8zM128 -9q-26 0 -44.5 18.5t-18.5 44.5t18.5 45t44.5 19t45 -19t19 -45t-19 -44.5t-45 -18.5z" />
<glyph unicode="&#x22;" horiz-adv-x="311" d="M284 495q-24 -8 -45 -8q-22 0 -43 8q-17 116 -18 137q-2 24 15 42t43 18q57 0 59 -58q1 -24 -11 -139zM123 495q-27 -8 -46 -8q-22 0 -43 8q-17 116 -18 137q-2 24 15 42t43 18q57 0 59 -58q1 -24 -10 -139z" />
<glyph unicode="#" horiz-adv-x="822" d="M722 183h-170l-35 -178q-29 -8 -67 -8l-46 3l35 183h-106l-35 -178q-31 -8 -68 -8l-45 3l35 183h-153q-3 14 -3 35q0 25 7 53h167l23 117h-153q-3 14 -3 36q0 28 6 51h166q23 112 33 166q31 9 70 9l43 -3l-34 -172h108l32 166q32 9 71 9l43 -3l-34 -172h157q3 -13 3 -33 q0 -25 -7 -54h-171q-4 -19 -10.5 -56.5t-11.5 -60.5h156q3 -15 3 -37q0 -28 -6 -51zM457 271l23 117h-109q-4 -19 -10.5 -56.5t-11.5 -60.5h108z" />
<glyph unicode="$" horiz-adv-x="390" d="M149 -65v61q-53 12 -86 47t-38 62q35 23 92 39q3 -7 9 -17t24 -27t35 -17q55 0 55 42q0 34 -47 52h1l-54 20q-45 17 -72.5 49.5t-27.5 77.5q0 42 28.5 76.5t80.5 46.5v60q29 10 66 10l37 -3v-67q32 -8 57 -26t34.5 -31.5t14.5 -25.5q-29 -36 -87 -42q-31 41 -63 41 q-21 0 -32.5 -7.5t-11.5 -18.5q0 -28 27 -37l56 -21q119 -45 119 -150q0 -39 -30 -77.5t-84 -53.5v-56q-31 -9 -69 -9z" />
<glyph unicode="%" horiz-adv-x="805" d="M158 39l404 657q59 -10 89 -48l-408 -660q-27 7 -49 20q-20 13 -28 22zM632 -34q-66 0 -107.5 54t-41.5 142q0 89 41.5 143.5t107.5 54.5q65 0 105.5 -54.5t40.5 -143.5t-40.5 -142.5t-105.5 -53.5zM632 49q18 0 31 32t13 81q0 50 -13 83t-31 33q-20 0 -33.5 -33 t-13.5 -83q0 -49 13.5 -81t33.5 -32zM176 289q-66 0 -107.5 54t-41.5 142q0 89 41.5 143.5t107.5 54.5q65 0 105.5 -54.5t40.5 -143.5t-40.5 -142.5t-105.5 -53.5zM176 372q18 0 31 32t13 81q0 50 -13 83t-31 33q-20 0 -33.5 -33t-13.5 -83q0 -49 13.5 -81t33.5 -32z" />
<glyph unicode="&#x26;" horiz-adv-x="645" d="M587 371h-41q0 -141 -48 -238q40 -93 64 -202q-20 -4 -54 -4l-52 2q-18 71 -32 109q-61 -46 -145 -46q-97 0 -158.5 61.5t-61.5 150.5q0 113 122 178q-64 70 -64 148q0 66 51.5 109.5t114.5 43.5q39 0 75.5 -18t57.5 -55q-27 -36 -81 -50q-1 1 -4.5 5t-4.5 5.5t-4 4.5 t-4.5 4t-4.5 3.5t-5 3.5l-5 2.5t-6 2t-6.5 1t-7.5 0.5q-16 0 -28.5 -16.5t-12.5 -45.5q0 -38 23 -75q12 -18 27.5 -36.5t39.5 -43.5l32 -33q42 -42 81 -103q16 65 16 132h-43q-6 41 11 79h172q2 -37 -14 -79zM305 246l-68 73q-55 -42 -55 -114q0 -46 31 -83.5t88 -37.5 q50 0 87 39q-39 77 -83 123z" />
<glyph unicode="'" horiz-adv-x="149" d="M123 495q-27 -8 -45 -8q-23 0 -44 8q-17 116 -18 137q-2 24 15 42t43 18q59 0 59 -58q1 -24 -10 -139z" />
<glyph unicode="(" horiz-adv-x="330" d="M204 751q54 -8 96 -40q-10 -15 -23.5 -43.5t-37.5 -85.5t-40 -134.5t-16 -153.5q0 -60 11.5 -122.5t28 -109.5t33 -85.5t28.5 -58.5l11 -20q-40 -35 -94 -43q-6 7 -15 20t-33 57.5t-42.5 92t-33.5 121t-15 148.5q0 78 14.5 154t35.5 128.5t42 93.5q22 41 36 61z" />
<glyph unicode=")" horiz-adv-x="329" d="M127 751q6 -7 15.5 -20.5t34 -59.5t43 -95.5t34 -126.5t15.5 -155q0 -75 -14.5 -147.5t-34.5 -123t-40 -89.5q-22 -40 -36 -60l-14 -19q-54 8 -94 43q5 7 12.5 21t26.5 57t34 87t27 107.5t12 123.5q0 76 -16 153.5t-40 134.5t-37.5 85.5t-23.5 43.5q42 32 96 40z" />
<glyph unicode="*" horiz-adv-x="321" d="M163 501q-22 -39 -25 -44q-9 -13 -24 -16t-30 7q-32 22 -9 54q4 7 31 38q-42 8 -48 10q-15 4 -23 18.5t-3 30.5q12 37 49 25q11 -3 44 -17q-1 7 -2 17.5t-2 17t-1 9.5q-1 16 10 28t29 12q39 0 39 -39q0 -16 -3 -45l43 20q14 7 29.5 -1t20.5 -24q13 -39 -25 -49 q-6 -3 -44 -14q28 -28 34 -37q10 -11 8 -27.5t-16 -26.5q-30 -23 -54 8q-16 23 -28 45z" />
<glyph unicode="+" horiz-adv-x="518" d="M462 217h-150v-152q-34 -10 -74 -10l-40 3v159h-151q-2 13 -2 33q0 36 9 67h144v141q32 10 73 10l41 -3v-148h160q6 -49 -10 -100z" />
<glyph unicode="," horiz-adv-x="218" d="M32 -39q42 25 53 43q-21 6 -32 22.5t-11 34.5q0 29 21 48.5t52 19.5q35 0 54 -26.5t19 -60.5q0 -87 -109 -148q-34 24 -47 67z" />
<glyph unicode="-" horiz-adv-x="350" d="M295 206h-248q-6 54 10 104h246q2 -12 2 -31q0 -41 -10 -73z" />
<glyph unicode="." horiz-adv-x="218" d="M109 -9q-29 0 -48.5 19.5t-19.5 48.5t19.5 48.5t48.5 19.5t48.5 -19.5t19.5 -48.5t-19.5 -48.5t-48.5 -19.5z" />
<glyph unicode="/" horiz-adv-x="401" d="M34 -47l230 771q26 3 54 -2q28 -4 42 -10l14 -6l-229 -770q-27 -1 -55 4q-28 4 -42 8z" />
<glyph unicode="0" horiz-adv-x="470" d="M235 -9q-82 0 -141.5 63t-59.5 173q0 109 58.5 171t142.5 62t142.5 -61t58.5 -172q0 -112 -59 -174t-142 -62zM235 79q24 0 40.5 23.5t23 56t6.5 68.5q0 55 -18 99.5t-52 44.5t-52 -44.5t-18 -99.5q0 -57 18 -102.5t52 -45.5z" />
<glyph unicode="1" horiz-adv-x="364" d="M319 0h-276q-3 40 15 93h75v228l-43 -29q-42 35 -53 76l108 81q29 6 58 6l48 -3v-359h84q3 -41 -16 -93z" />
<glyph unicode="2" horiz-adv-x="423" d="M375 0l-330 2q-8 60 20 89l160 160q28 28 28 65q0 18 -14.5 35.5t-37.5 17.5q-22 0 -45 -14t-35 -28l-12 -14q-20 10 -36.5 25t-22.5 25l-7 10q2 4 7 9.5t21 20.5t34 26.5t47 21t60 9.5q82 0 123 -43t41 -97q0 -66 -76 -142l-67 -66l-23 -20q18 2 28 2h152q5 -43 -15 -94 z" />
<glyph unicode="3" horiz-adv-x="406" d="M40 -157q-1 23 5 46t13 35l7 12q46 -9 69 -9q54 0 91 39t37 93q0 29 -22.5 51.5t-64.5 22.5l-41 -6l-7.5 13t-10 31.5t-2.5 45.5q53 9 83 37.5t31 52.5q1 25 -12 43t-41 18q-23 0 -46 -14q-27 -16 -45 -41q-44 23 -66 60q69 87 170 87q76 0 120 -41t44 -101 q0 -35 -27.5 -69.5t-67.5 -51.5q66 -4 98 -40.5t32 -85.5q0 -99 -69.5 -169.5t-181.5 -70.5q-40 0 -96 12z" />
<glyph unicode="4" horiz-adv-x="457" d="M254 -152v153l-232 2q-7 48 8 80l179 378q63 -12 94 -49q-131 -270 -159 -320q17 1 33 1h77v134q34 7 68 7l48 -3v-138h73q3 -41 -16 -93h-57v-144q-35 -10 -78 -10z" />
<glyph unicode="5" horiz-adv-x="447" d="M364 359h-186l-6 -89q-1 -16 -8 -34q26 19 61 19q89 0 138.5 -53t49.5 -131q0 -108 -74 -174.5t-184 -66.5q-39 0 -103 16q-1 49 26 96q49 -8 71 -8q65 0 101.5 37t36.5 100q0 37 -22.5 62.5t-67.5 25.5q-34 0 -79 -25q-46 16 -67 54l16 264h316q0 -64 -19 -93z" />
<glyph unicode="6" horiz-adv-x="474" d="M156 329q37 63 117 63q63 0 116 -51t53 -147q0 -83 -52.5 -142.5t-144.5 -59.5q-97 0 -153 75.5t-56 194.5q0 168 96.5 267.5t232.5 99.5q28 0 52 -4q0 -35 -23 -81q-189 8 -238 -215zM157 225q3 -62 26 -99.5t65 -37.5q36 0 58.5 32.5t22.5 75.5q0 50 -23 78t-55 28 q-58 0 -94 -77z" />
<glyph unicode="7" horiz-adv-x="418" d="M79 -128q146 377 195 489q-23 -2 -42 -2h-207q-5 42 14 93h361q0 -63 -7 -81l-203 -534q-71 6 -111 35z" />
<glyph unicode="8" horiz-adv-x="469" d="M315 325q125 -71 125 -163q0 -67 -51 -119t-149 -52q-97 0 -147.5 48t-50.5 119q0 45 30.5 86.5t73.5 67.5q-81 59 -81 156q0 67 50 116.5t127 49.5q79 0 120 -50.5t41 -116.5q0 -82 -88 -142zM253 366q42 37 42 96q0 36 -15.5 63.5t-38.5 27.5q-28 0 -43.5 -24.5 t-15.5 -60.5q0 -60 71 -102zM213 271q-22 -17 -38 -45t-16 -57q0 -37 23.5 -63.5t57.5 -26.5q33 0 54 23.5t21 58.5q0 30 -24 53.5t-78 56.5z" />
<glyph unicode="9" horiz-adv-x="474" d="M72 -189q-4 48 17 91q84 -6 149.5 53t79.5 168q-37 -63 -117 -63q-63 0 -116 51t-53 147q0 82 56.5 142t146.5 60q96 0 149.5 -75t53.5 -195q0 -171 -95 -276.5t-227 -105.5q-22 0 -44 3zM317 231q-3 62 -26 100t-65 38q-36 0 -58.5 -33t-22.5 -76q0 -50 23 -78t55 -28 q58 0 94 77z" />
<glyph unicode=":" horiz-adv-x="218" d="M109 258q-29 0 -48.5 20t-19.5 48t19.5 48t48.5 20t48.5 -20t19.5 -48t-19.5 -48t-48.5 -20zM109 31q-29 0 -48.5 19.5t-19.5 48.5t19.5 48.5t48.5 19.5t48.5 -19.5t19.5 -48.5t-19.5 -48.5t-48.5 -19.5z" />
<glyph unicode=";" horiz-adv-x="208" d="M110 258q-28 0 -48 20t-20 48t20 48t48 20t48 -20t20 -48t-20 -48t-48 -20zM32 -35q39 23 49 40q-40 12 -40 52q0 27 19.5 45t48.5 18q32 0 49.5 -24.5t17.5 -55.5q0 -81 -101 -137q-14 10 -24.5 25.5t-14.5 25.5z" />
<glyph unicode="&#x3c;" horiz-adv-x="458" d="M350 16l-293 169q-2 44 6 76l292 168q37 -42 47 -87l-220 -118l221 -119q-15 -46 -53 -89z" />
<glyph unicode="=" horiz-adv-x="486" d="M448 284h-418q-5 47 10 96h413q3 -16 3 -38q0 -30 -8 -58zM448 136h-418q-5 48 10 96h413q3 -16 3 -38q0 -30 -8 -58z" />
<glyph unicode="&#x3e;" horiz-adv-x="458" d="M410 184l-292 -168q-37 42 -47 87l220 118l-221 119q15 46 52 89l294 -169q2 -44 -6 -76z" />
<glyph unicode="?" horiz-adv-x="416" d="M236 173q-43 -8 -79 -8q-8 0 -19.5 0.5t-14.5 0.5q-10 38 -10 67q0 39 15.5 71.5t37.5 55l44 43.5t37.5 49.5t15.5 61.5q0 28 -17 53.5t-52 25.5q-23 0 -44.5 -13.5t-31.5 -27.5l-10 -14q-54 23 -78 58q7 13 17 25.5t29.5 29.5t52 27.5t72.5 10.5q82 0 135 -50t53 -124 q0 -43 -16.5 -80.5t-39.5 -63.5t-46 -48.5t-39.5 -46.5t-16.5 -48q0 -34 5 -55zM246 54q0 -26 -19 -44.5t-45 -18.5t-44.5 18.5t-18.5 44.5t18.5 45t44.5 19t45 -19t19 -45z" />
<glyph unicode="@" horiz-adv-x="916" d="M651 397v-287q0 -8 6 -13t11 -6.5t7 -1.5q32 0 52 50t20 138q0 112 -64.5 171t-186.5 59q-133 0 -229 -84.5t-96 -230.5q0 -135 83 -215t211 -80q86 0 171 53q39 -31 53 -81q-100 -73 -226 -73q-182 0 -298 113.5t-116 282.5q0 99 41.5 181.5t107.5 133t143.5 78 t154.5 27.5q98 0 172 -29.5t115 -79t61 -106.5t20 -120q0 -128 -58.5 -206.5t-153.5 -78.5q-28 0 -52 12q-24 10 -34 22l-11 12q-41 -47 -102 -47q-28 0 -58 11.5t-59 34t-47.5 64.5t-18.5 95q0 52 18.5 94.5t47 67t58 37.5t55.5 13q51 0 82 -31q1 3 4 8.5t4 8.5q28 9 61 9 q13 0 26 -1.5t19 -3.5zM526 97v200q-5 9 -18.5 17.5t-25.5 8.5q-49 0 -71 -35.5t-22 -87.5q0 -53 25.5 -88.5t60.5 -35.5q12 0 24.5 5t19.5 11z" />
<glyph unicode="A" horiz-adv-x="572" d="M442 2l-62 181h-182l-66 -191q-27 -1 -54.5 4.5t-41.5 11.5l-13 6l222 649q32 8 61 8l35 -3l193 -560q10 -27 45 -27q2 -14 2 -31q0 -31 -10 -45q-39 -13 -73 -13q-30 0 -56 10zM349 274l-42 134q-6 19 -10.5 39.5t-6.5 31.5l-1 11q-4 -40 -18 -82l-42 -134h120z" />
<glyph unicode="B" horiz-adv-x="575" d="M84 2v555q0 12 -11.5 19.5t-26.5 7.5q-2 15 -2 32q0 30 8 43q87 24 209 24q133 0 190 -55.5t57 -136.5q0 -80 -81 -129q46 -15 84.5 -58t38.5 -107q0 -92 -70 -148.5t-186 -56.5q-99 0 -210 10zM212 580v-180q18 -1 72 -1q46 0 71.5 29t25.5 62q0 37 -26.5 64.5 t-92.5 27.5zM212 302v-201q45 -5 73 -5q62 0 99.5 29t37.5 77q0 47 -36 74t-102 27z" />
<glyph unicode="C" horiz-adv-x="613" d="M591 156q-16 -60 -79 -112t-165 -52q-127 0 -218 91.5t-91 257.5q0 87 27.5 155.5t73 107.5t96.5 58.5t105 19.5q41 0 79.5 -8.5t62 -19t45.5 -24.5t28.5 -20l11.5 -11q0 -72 -10 -121q-22 -3 -45 -3l-53 3q0 56 -34 80.5t-86 24.5q-77 0 -123 -67t-46 -173 q0 -109 47.5 -178t131.5 -69q82 0 124 75l8 16q24 0 51.5 -7.5t43.5 -15.5z" />
<glyph unicode="D" horiz-adv-x="640" d="M84 3v554q0 12 -11.5 19.5t-26.5 7.5q-2 15 -2 32q0 30 8 43q67 24 189 24q164 0 262.5 -97.5t98.5 -255.5q0 -157 -91.5 -247.5t-248.5 -90.5q-36 0 -80 3q-46 3 -72 5zM211 577v-476q18 -3 39 -3q111 0 166.5 63t55.5 171q0 109 -59.5 178t-170.5 69z" />
<glyph unicode="E" horiz-adv-x="535" d="M504 0h-420v557q0 12 -11.5 19.5t-26.5 7.5q-2 15 -2 32q0 30 8 43q35 12 87 12h367q2 -64 -13 -99h-282v-174h243q2 -64 -13 -99h-230v-200h306q2 -64 -13 -99z" />
<glyph unicode="F" horiz-adv-x="470" d="M84 -2v559q0 12 -11.5 19.5t-26.5 7.5q-2 15 -2 32q0 30 8 43q47 12 95 12h342q2 -67 -13 -102h-264v-169h224q2 -67 -13 -102h-211v-292q-40 -11 -74 -11z" />
<glyph unicode="G" horiz-adv-x="641" d="M476 134v134h-145q-4 42 17 93h246v-283q-105 -86 -244 -86q-59 0 -113.5 22t-99.5 63.5t-72 110t-27 153.5q0 81 27 147.5t72 108t99.5 63.5t112.5 22q60 0 118 -19.5t77 -31.5t31 -22q1 -11 1 -35q0 -32 -10 -82q-10 -2 -32 -2q-16 0 -33 2t-25 4l-9 1q0 39 -35 62.5 t-83 23.5q-79 0 -130 -67t-51 -173t51.5 -177.5t130.5 -71.5q71 0 126 40z" />
<glyph unicode="H" horiz-adv-x="674" d="M463 2v296h-252v-292q-40 -11 -74 -11l-53 3v559q0 12 -11.5 19.5t-26.5 7.5q-2 15 -2 32q0 30 8 43q47 17 110 17l49 -3v-275h252v265q40 11 74 11l53 -3v-563q0 -13 11.5 -20t27.5 -7q2 -14 2 -31q0 -31 -10 -45q-39 -15 -85 -15q-15 0 -33 3t-29 6z" />
<glyph unicode="I" horiz-adv-x="295" d="M84 2v555q0 12 -11.5 19.5t-26.5 7.5q-2 15 -2 32q0 30 8 43q47 17 110 17l49 -3v-565q0 -13 11.5 -20t27.5 -7q2 -14 2 -31q0 -31 -10 -45q-39 -15 -85 -15q-15 0 -33 3t-29 6z" />
<glyph unicode="J" horiz-adv-x="276" d="M82 52v505q0 12 -11.5 19.5t-26.5 7.5q-2 15 -2 32q0 30 8 43q47 17 110 17l49 -3v-629q0 -159 -168 -270q-21 16 -35 38t-18 36l-3 13q51 51 68 79q29 50 29 112z" />
<glyph unicode="K" horiz-adv-x="551" d="M428 2l-204 264q-2 -4 -7 -11l-7 -10v-239q-40 -11 -72 -11l-54 3v559q0 12 -11.5 19.5t-26.5 7.5q-2 15 -2 32q0 30 8 43q47 17 110 17l48 -3v-201l-8 -79q41 90 122.5 175t173.5 119q36 -41 39 -92q-150 -61 -251 -230l201 -257q10 -12 32.5 -19.5t40.5 -7.5 q2 -14 2 -31q0 -31 -10 -45q-39 -13 -70 -13q-28 0 -54 10z" />
<glyph unicode="L" horiz-adv-x="475" d="M479 0h-395v557q0 12 -11.5 19.5t-26.5 7.5q-2 15 -2 32q0 30 8 43q47 17 111 17l49 -3v-570h280q2 -68 -13 -103z" />
<glyph unicode="M" horiz-adv-x="777" d="M622 2l-35 353q-3 19 -4 48.5t-1 50v21.5q1 -2 -3 -22.5t-10.5 -49.5t-12.5 -48l-114 -351l-13 -2.5t-33.5 -4t-47.5 0.5l-116 357q-8 22 -15 51t-11 48t-3 21q0 -70 -6 -120l-36 -359q-10 -1 -29 -1q-46 0 -80 10l63 553q1 12 -9.5 19.5t-25.5 7.5q-2 15 -2 32 q0 29 8 42q47 17 109 17l48 -3l132 -404q9 -27 15.5 -56.5t8.5 -45.5l2 -16q0 3 2 18.5t8.5 46t14.5 55.5l128 393q34 10 59 10l55 -5l64 -562q3 -27 39 -27q2 -14 2 -31q0 -30 -10 -44q-39 -15 -82 -15q-15 0 -29 3t-22 6z" />
<glyph unicode="N" horiz-adv-x="639" d="M473 -3l-252 409q-9 15 -17.5 34.5t-12.5 31.5l-4 12q10 -44 10 -84l2 -394q-35 -9 -76 -9l-39 2v558q0 12 -11.5 19.5t-26.5 7.5q-2 15 -2 32q0 30 8 43q47 17 98 17l38 -3l243 -394q27 -44 41 -86q-10 43 -10 90l-2 380q32 10 73 10l39 -3v-664q-24 -7 -48.5 -9 t-37.5 -1z" />
<glyph unicode="O" d="M340 -8q-133 0 -217.5 95t-84.5 248t84.5 250t217.5 97q132 0 216 -97t84 -250t-83.5 -248t-216.5 -95zM340 98q76 0 119 64t43 173t-43 176t-119 67t-120 -67t-44 -176q0 -108 43.5 -172.5t120.5 -64.5z" />
<glyph unicode="P" horiz-adv-x="511" d="M84 0v557q0 12 -11.5 19.5t-26.5 7.5q-2 15 -2 32q0 30 8 43q83 24 193 24t186 -56t76 -162q0 -110 -65.5 -165t-189.5 -55l-41 2v-241q-37 -11 -71 -11zM211 585v-241q13 -2 44 -2q61 0 93.5 27.5t32.5 92.5q0 63 -40.5 94.5t-92.5 31.5z" />
<glyph unicode="Q" d="M599 -123q-66 -25 -113 -25q-78 0 -126 44.5t-66 97.5q-114 18 -185 111t-71 230q0 153 84.5 250t217.5 97q132 0 216 -97t84 -250q0 -122 -56 -209t-153 -120q7 -23 29 -42.5t53 -19.5q18 0 50 9q30 -33 36 -76zM340 98q76 0 119 64t43 173t-43 176t-119 67t-120 -67 t-44 -176q0 -108 43.5 -172.5t120.5 -64.5z" />
<glyph unicode="R" horiz-adv-x="559" d="M394 2l-128 232q-12 23 -25 29l-29 1v-258q-38 -11 -70 -11l-58 5v557q0 12 -11.5 19.5t-26.5 7.5q-2 15 -2 32q0 30 8 43q87 24 209 24q111 0 181 -54.5t70 -153.5q0 -146 -147 -197q14 -10 27 -33l79 -137q7 -13 30 -20t43 -7q2 -14 2 -31q0 -31 -10 -45 q-39 -13 -79 -13q-34 0 -63 10zM212 586v-223q26 -4 50 -4q51 0 86 27.5t35 85.5q0 60 -34 88t-93 28z" />
<glyph unicode="S" horiz-adv-x="523" d="M265 291l-65 28q-146 68 -146 184q0 73 53.5 126t157.5 53q106 0 187 -58q1 -14 1 -45q0 -49 -7 -79q-16 -3 -32 -3q-35 0 -67 8q1 20 -9 41q-20 38 -64 38q-38 0 -63.5 -21t-25.5 -52q0 -51 63 -79l83 -37q89 -40 126 -91t37 -122q0 -74 -63.5 -132t-164.5 -58 q-95 0 -151 45t-78 106q36 34 94 49q48 -99 129 -99q50 0 73.5 25.5t23.5 63.5t-20 62t-72 47z" />
<glyph unicode="T" horiz-adv-x="468" d="M169 0v570h-213q-2 66 13 101h543q2 -66 -13 -101h-201v-564q-37 -11 -71 -11z" />
<glyph unicode="U" horiz-adv-x="608" d="M428 219v446q40 11 71 11l53 -3v-458q0 -59 -21 -103.5t-56.5 -69.5t-77.5 -37.5t-90 -12.5q-94 0 -163.5 61t-69.5 153v351q0 12 -11.5 19.5t-26.5 7.5q-2 15 -2 32q0 30 8 43q47 17 110 17l49 -3v-440q0 -76 34 -109t81 -33q44 0 78 32.5t34 95.5z" />
<glyph unicode="V" horiz-adv-x="542" d="M234 -2l-198 559q-4 11 -21.5 19t-32.5 8q-2 15 -2 32q0 30 8 43q47 17 102 17l41 -3l135 -409q6 -17 12 -42t8 -41l2 -16q9 60 23 99l138 419q27 -1 54 -7q27 -8 41 -14l13 -6l-228 -651q-46 -12 -95 -7z" />
<glyph unicode="W" horiz-adv-x="798" d="M522 -5l-93 367q-6 19 -10.5 44.5t-6.5 41.5l-2 15q-5 -58 -19 -101l-92 -357q-38 -10 -99 -10l-164 563q-4 11 -21.5 19t-32.5 8q-2 15 -2 32q0 29 8 42q47 17 100 17l39 -3l107 -401q6 -20 11 -45t7 -41l1 -15q5 56 19 101l90 341q29 8 71 8l31 -1l93 -348 q17 -54 17 -101q5 60 18 101l111 409q60 2 110 -23l-192 -653q-39 -10 -99 -10z" />
<glyph unicode="X" horiz-adv-x="574" d="M457 2l-128 199l-47 74q-19 -41 -40 -74l-138 -222q-28 7 -53 19.5t-37 21.5l-11 9l218 326l-130 192q-24 33 -74 33q-2 16 -2 35q0 30 7 42q63 26 126 18l111 -167l46 -76q19 46 39 76q76 124 113 178q60 -13 100 -53l-190 -284l162 -241q7 -12 33 -19.5t44 -7.5 q2 -14 2 -31q0 -31 -10 -45q-39 -13 -79 -13q-33 0 -62 10z" />
<glyph unicode="Y" horiz-adv-x="497" d="M186 0v301l-148 256q-6 10 -25 18.5t-34 8.5q-2 15 -2 32q0 30 8 43q40 17 86 17l34 -3l115 -208q7 -12 15 -30.5t13 -31.5l5 -13q18 49 33 75l121 219q28 -3 54 -13q26 -11 38 -19l12 -8l-197 -340v-298q-37 -11 -70 -11z" />
<glyph unicode="Z" horiz-adv-x="550" d="M508 0h-480q-7 58 12 88l279 440q6 10 15 21t15 17l6 7q-32 -4 -54 -4h-263q-2 67 13 102h457q0 -1 1 -12t1 -21q0 -37 -11 -54l-274 -432l-40 -52q31 4 53 4h283q1 -70 -13 -104z" />
<glyph unicode="[" horiz-adv-x="321" d="M254 -74h-183v833h200q4 -43 -17 -90h-70v-652h89q2 -41 -19 -91z" />
<glyph unicode="\" horiz-adv-x="401" d="M138 724l230 -771q-6 -2 -16 -5t-39 -8t-56 -4l-229 770q6 3 16 7t39 9t55 2z" />
<glyph unicode="]" horiz-adv-x="321" d="M74 759h183v-833h-200q-4 43 17 90h70v652h-89q-2 41 19 91z" />
<glyph unicode="^" horiz-adv-x="297" d="M216 730l-70 62l-69 -61q-19 12 -33 28q-16 16 -20 26l-4 10l92 91q4 1 10.5 2.5t25 3t33.5 0.5l96 -96q-14 -35 -61 -66z" />
<glyph unicode="_" horiz-adv-x="586" d="M542 -156h-504q-3 16 -3 39q0 32 7 55h506q3 -14 3 -35q0 -32 -9 -59z" />
<glyph unicode="`" horiz-adv-x="149" d="M215 787q-18 -48 -54 -71q-103 56 -120 68q-25 17 -25 47q0 19 12 36q19 26 45 26q18 0 37 -14q9 -6 35 -29l48 -43z" />
<glyph unicode="a" horiz-adv-x="465" d="M393 270v-144q0 -40 28 -27l4 2q13 -11 23 -26t13 -25l3 -9q-3 -6 -10 -14t-31 -22t-51 -14q-54 0 -87 43q-15 -19 -41 -31t-54 -12q-62 0 -107 36.5t-45 114.5q0 75 55 114.5t125 39.5q25 0 51 -8q-5 73 -60 73q-49 0 -99 -39q-41 33 -52 79q72 59 159 59 q176 0 176 -190zM268 98v112q-21 8 -46 8q-28 0 -46 -19t-18 -54q0 -29 18 -46t40 -17q32 0 52 16z" />
<glyph unicode="b" horiz-adv-x="512" d="M186 26l-10 -24q-33 -10 -66 -10q-23 0 -44 4v608q0 35 -29 26l-3 -1q-26 33 -34 72q42 27 93 27q42 0 70 -26t28 -74v-197q36 29 87 29q85 0 141.5 -61.5t56.5 -178.5q0 -60 -19.5 -106t-50.5 -71.5t-65 -38t-67 -12.5q-50 0 -88 34zM191 341v-223q31 -29 74 -29 q33 0 56.5 38t23.5 97q0 72 -22.5 109t-60.5 37q-45 0 -71 -29z" />
<glyph unicode="c" horiz-adv-x="435" d="M417 107q-9 -37 -53.5 -76t-112.5 -39q-55 0 -101.5 20.5t-80 74t-33.5 133.5q0 118 65.5 179t149.5 61q117 0 163 -105q-45 -30 -96 -34q-10 14 -16.5 22t-20 15.5t-28.5 7.5q-35 0 -61.5 -37.5t-26.5 -102.5q0 -66 26.5 -103t64.5 -37q37 0 66 53q23 0 47 -8t36 -16z " />
<glyph unicode="d" horiz-adv-x="518" d="M321 439v172q0 40 -11 91q24 11 54 17.5t48 7.5l18 1q17 -46 17 -94v-508q0 -40 28 -27l4 2q13 -11 23 -26t13 -25l3 -9q-3 -6 -10.5 -14t-33 -22t-55.5 -14q-25 0 -48 13t-35 34q-49 -47 -110 -47q-68 0 -129 61t-61 170q0 115 64.5 176.5t138.5 61.5q49 0 82 -21z M321 115v236q-29 19 -66 19q-42 0 -66 -37t-24 -106q0 -64 24 -103.5t62 -39.5q41 0 70 31z" />
<glyph unicode="e" horiz-adv-x="458" d="M429 105q-14 -41 -62.5 -77t-116.5 -36q-37 0 -73 12.5t-68.5 38.5t-52.5 72.5t-20 106.5q0 116 65 177t141 61q77 0 131.5 -56.5t54.5 -154.5q0 -35 -61.5 -56t-137.5 -21q-34 0 -63 6q9 -94 91 -94q27 0 50 19t32 35q24 0 46.5 -8.5t32.5 -16.5zM167 260q32 -4 58 -4 q76 0 76 14q0 34 -15 67t-43 33q-68 0 -76 -110z" />
<glyph unicode="f" horiz-adv-x="309" d="M77 0v357h-68q-2 43 14 95h54v98q0 92 48 135t117 43q52 0 87 -28.5t45 -59.5q-34 -28 -92 -35q-15 22 -41 22q-39 0 -39 -76v-99h133q3 -42 -16 -95h-117v-351q-39 -11 -70 -11z" />
<glyph unicode="g" horiz-adv-x="461" d="M83 -13q-43 29 -43 77q0 26 19 48.5t42 32.5q-65 50 -65 136q0 79 59.5 129t134.5 50q56 0 101 -26q50 26 113 30q7 -19 9 -40.5t1 -33.5l-1 -11q-34 2 -65 -3q10 -10 22 -37t12 -58q0 -75 -53 -126.5t-142 -51.5l-63 7q-14 -7 -14 -20q0 -15 31.5 -20t76.5 -8.5 t90 -13.5t76.5 -44t31.5 -91q0 -69 -61 -120.5t-166 -51.5q-109 0 -165.5 41t-56.5 101q0 30 20.5 58.5t55.5 45.5zM231 192q27 0 47 25t20 65q0 39 -19 63.5t-48 24.5q-26 0 -47.5 -25t-21.5 -65q0 -41 20 -64.5t49 -23.5zM152 -37q-2 -3 -8.5 -10.5t-9.5 -11.5t-7 -11.5 t-6 -15t-2 -16.5q0 -31 31.5 -48.5t80.5 -17.5q47 0 76.5 20t29.5 47t-29 38.5t-84 16.5t-72 9z" />
<glyph unicode="h" horiz-adv-x="523" d="M327 96v183q0 43 -21.5 66.5t-52.5 23.5q-35 0 -62 -27v-336q-39 -11 -70 -11l-55 5v601q0 35 -29 26l-3 -1q-26 33 -34 72q47 30 93 30q42 0 70 -26t28 -74v-196q34 28 85 28q69 0 122 -48.5t53 -140.5v-145q0 -40 28 -27l4 2q13 -11 23 -26t13 -25l3 -9 q-14 -21 -43 -36q-28 -13 -56 -13q-43 0 -69.5 31.5t-26.5 72.5z" />
<glyph unicode="i" horiz-adv-x="276" d="M133 539q-29 0 -49 20t-20 49t20 49.5t49 20.5t49.5 -20.5t20.5 -49.5t-20.5 -49t-49.5 -20zM75 96v237q0 35 -29 26l-3 -1q-26 33 -34 72q47 30 92 30q42 0 70 -26t28 -74v-234q0 -33 19 -30l13 5q13 -11 23 -26t13 -25l3 -9q-3 -5 -10.5 -13.5t-33 -22t-55.5 -13.5 q-43 0 -69.5 31.5t-26.5 72.5z" />
<glyph unicode="j" horiz-adv-x="231" d="M118 539q-29 0 -49 20t-20 49t20 49.5t49 20.5t49.5 -20.5t20.5 -49.5t-20.5 -49t-49.5 -20zM55 -2v344q0 41 -11 91q24 11 54 18t48 8l18 1q17 -47 17 -95v-369q0 -91 -37.5 -155t-97.5 -100q-38 32 -52 86q61 68 61 171z" />
<glyph unicode="k" horiz-adv-x="454" d="M290 43l-87 112l-12 -16v-136q-30 -9 -59 -9l-66 7v600q0 35 -29 26l-3 -1q-26 33 -34 72q47 30 93 30q42 0 70 -26t28 -74v-270l-5 -83q30 66 90 117t119 68q26 -27 35 -84q-91 -30 -161 -126l95 -124q18 -23 32 -30q14 -6 20 0l6 5q13 -11 23 -26t13 -25l3 -9 l-8.5 -13.5t-26 -22t-44.5 -13.5q-53 0 -92 51z" />
<glyph unicode="l" horiz-adv-x="263" d="M67 96v505q0 35 -29 26l-3 -1q-26 33 -34 72q47 30 92 30q42 0 70 -26t28 -74v-502q0 -40 28 -27l4 2q13 -11 23 -26t13 -25l3 -9q-3 -5 -10.5 -13.5t-33 -22t-55.5 -13.5q-43 0 -69.5 31.5t-26.5 72.5z" />
<glyph unicode="m" horiz-adv-x="730" d="M534 96v188q0 78 -52 78q-11 0 -23.5 -6t-18.5 -12l-7 -7v-331q-39 -11 -68 -11l-53 6v297q0 64 -52 64q-20 0 -42 -13l-16 -12v-331q-39 -11 -70 -11l-55 5v333q0 35 -29 26l-3 -1q-26 33 -34 72q47 30 92 30q52 0 76 -44q38 44 102 44q42 0 67.5 -12.5t50.5 -37.5 q44 50 106 50q30 0 55 -7.5t48 -25t36.5 -52.5t13.5 -85v-164q0 -40 28 -27l4 2q13 -11 23 -26t13 -25l3 -9q-3 -5 -10.5 -13.5t-33 -22t-55.5 -13.5q-43 0 -69.5 31.5t-26.5 72.5z" />
<glyph unicode="n" horiz-adv-x="518" d="M320 96v181q0 85 -65 85q-12 0 -25 -6t-20 -12l-7 -7v-331q-39 -11 -70 -11l-56 5v333q0 35 -29 26l-3 -1q-26 33 -34 72q47 30 92 30q50 0 77 -44q37 44 99 44q70 0 118.5 -45t48.5 -139v-150q0 -40 28 -27l4 2q13 -11 23 -26t13 -25l3 -9q-4 -6 -11 -14t-33.5 -22 t-56.5 -14q-43 0 -69.5 32t-26.5 73z" />
<glyph unicode="o" horiz-adv-x="501" d="M251 -8q-89 0 -152 60t-63 169q0 108 66 173.5t149 65.5q86 0 150 -64t64 -175q0 -109 -63.5 -169t-150.5 -60zM251 83q41 0 62.5 41t21.5 97q0 61 -20 102.5t-64 41.5t-64.5 -42t-20.5 -102q0 -56 22 -97t63 -41z" />
<glyph unicode="p" horiz-adv-x="522" d="M77 -239v572q0 35 -29 26l-3 -1q-26 33 -34 72q47 30 92 30q51 0 77 -44q49 44 111 44q32 0 64 -12.5t62.5 -38.5t49.5 -73.5t19 -110.5q0 -61 -20 -108.5t-51.5 -73.5t-65 -39t-66.5 -13q-44 0 -80 29v-251q-39 -10 -73 -10zM203 340v-224q29 -27 69 -27q36 0 58.5 32 t22.5 98t-23 108.5t-62 42.5q-41 0 -65 -30z" />
<glyph unicode="q" horiz-adv-x="504" d="M321 -155v177q-31 -31 -90 -31q-32 0 -64.5 13.5t-62.5 40t-49 74.5t-19 110q0 58 19.5 104t50.5 72.5t65 40.5t66 14q50 0 89 -31q7 16 8 16q34 9 57 9l55 -5v-574q0 -40 28 -27l4 2q13 -11 23 -26q10 -14 13 -24l3 -10q-14 -21 -43 -36q-28 -13 -56 -13q-43 0 -70 31.5 t-27 72.5zM321 112v232q-35 26 -69 26q-39 0 -62.5 -39.5t-23.5 -108.5q0 -68 23.5 -101.5t64.5 -33.5q34 0 67 25z" />
<glyph unicode="r" horiz-adv-x="347" d="M77 0v333q0 35 -29 26l-3 -1q-26 33 -34 72q45 30 92 30q57 0 77 -66q16 29 42.5 47.5t52.5 18.5q35 0 59 -14q3 -22 -4 -52t-21 -48q-16 8 -39 8q-35 0 -52 -25.5t-17 -60.5v-262q-39 -11 -68 -11z" />
<glyph unicode="s" horiz-adv-x="390" d="M194 180l-53 20q-44 17 -72 50.5t-28 78.5q0 53 42.5 92t117.5 39q49 0 86 -18.5t50.5 -35t19.5 -31.5q-21 -32 -79 -43q-30 40 -70 40q-17 0 -30 -9.5t-13 -24.5q0 -27 26 -37l57 -21q67 -25 93 -61t26 -88q0 -51 -46.5 -95t-126.5 -44q-42 0 -75 12.5t-52 32.5 t-29 36.5t-14 31.5q37 26 86 39q3 -7 8.5 -17.5t26 -27.5t45.5 -17q51 0 51 46q0 34 -47 52z" />
<glyph unicode="t" horiz-adv-x="333" d="M72 121v235h-66q-2 43 16 96h50v40q0 16 -3 38l-5 34l-3 14q24 11 54 18t48 8l18 1q16 -47 16 -95v-58h131q2 -44 -17 -96h-114v-213q0 -26 10.5 -37t23.5 -11q9 0 26 6.5t30 12.5l13 7q13 -18 21.5 -36.5t10.5 -27.5l3 -9q-12 -15 -49.5 -35.5t-81.5 -20.5 q-58 0 -95 35.5t-37 93.5z" />
<glyph unicode="u" horiz-adv-x="517" d="M309 106v341q41 10 70 10l56 -5v-326q0 -40 28 -27l4 2q13 -11 23 -26t13 -25l3 -9q-33 -50 -96 -50q-25 0 -47.5 13t-34.5 30q-34 -43 -94 -43q-65 0 -116 46t-51 134v162q0 35 -29 26l-3 -1q-26 33 -34 72q47 30 93 30q42 0 70.5 -26t28.5 -74v-197q0 -42 20.5 -60.5 t48.5 -18.5q32 0 47 22z" />
<glyph unicode="v" horiz-adv-x="418" d="M182 -5l-134 338q-15 35 -41 25q-26 33 -34 72q47 30 93 30q63 0 83 -60l50 -149l29 -104q13 53 31 104l75 212q67 -2 102 -27l-167 -431q-39 -10 -87 -10z" />
<glyph unicode="w" horiz-adv-x="640" d="M420 -5l-53 159l-27 101q-11 -58 -27 -101q-32 -105 -49 -151q-34 -8 -86 -8l-123 338q-14 35 -46 25q-26 33 -34 72q47 30 89 30q62 0 82 -60l51 -144q16 -45 27 -105q12 61 27 105l48 144q27 8 58 8q15 0 32 -3l50 -149q8 -22 14.5 -48.5t9.5 -42.5l3 -16q13 62 29 107 l74 207q27 0 49 -6.5t31 -12.5l9 -6l-155 -433q-14 -4 -34.5 -6.5t-34.5 -2.5z" />
<glyph unicode="x" horiz-adv-x="435" d="M281 43l-34 51l-33 53q-15 -33 -28 -53l-69 -110q-26 5 -49 16q-24 12 -34 20l-10 8l135 201l-71 104q-11 16 -24 23q-12 6 -20 4l-8 -2q-26 33 -34 72q47 30 93 30q28 0 46.5 -13t37.5 -43l30 -45l29 -47q11 29 23 47l63 101q59 -6 94 -43l-126 -186l72 -105 q28 -40 57 -25q13 -11 23 -26t13 -25l3 -9l-8.5 -13.5t-26 -22t-44.5 -13.5q-66 0 -100 51z" />
<glyph unicode="y" horiz-adv-x="431" d="M172 18l-123 315q-14 33 -42 25q-26 33 -34 72q47 30 93 30q62 0 83 -60l59 -169q8 -21 14 -47q8 -25 10 -40l2 -15q10 57 27 102l87 233q28 0 53 -7t37 -15l11 -7l-166 -423q-57 -142 -188 -271q-24 12 -41.5 31.5t-23.5 33.5l-6 14q38 39 59 63t47 61t42 74z" />
<glyph unicode="z" horiz-adv-x="396" d="M371 0h-348q-2 26 -2 35q0 29 12 48q138 213 185 277q-31 -1 -43 -1h-139q-3 41 17 93h316q0 -66 -11 -83l-155 -240l-29 -37q32 1 44 1h169q5 -40 -16 -93z" />
<glyph unicode="{" horiz-adv-x="389" d="M146 50v145q0 27 -19 45t-69 41q-2 19 -1 35q1 14 4 24l3 10q46 22 64 40t18 45v160q0 84 48 114.5t140 30.5q6 -39 -15 -87q-62 0 -62 -55v-165q0 -75 -85 -117q85 -51 85 -119v-151q0 -26 15.5 -39.5t57.5 -13.5q10 -39 -11 -88q-78 0 -125.5 31t-47.5 114z" />
<glyph unicode="|" horiz-adv-x="273" d="M79 -89v877q35 9 76 9l39 -2v-877q-32 -10 -74 -10z" />
<glyph unicode="}" horiz-adv-x="389" d="M143 46v151q0 74 86 119q-86 50 -86 117v165q0 27 -15.5 41.5t-63.5 16.5q-4 35 17 84q174 0 174 -145v-160q0 -27 19 -45.5t68 -39.5q1 -19 0 -34.5t-3 -25.5l-2 -9q-46 -22 -64 -40.5t-18 -45.5v-145q0 -85 -48.5 -115t-141.5 -30q-4 39 17 88q33 0 47 13t14 40z" />
<glyph unicode="~" horiz-adv-x="372" d="M342 292q-4 -7 -11 -18t-34.5 -29.5t-60.5 -18.5q-30 0 -56.5 17.5t-42.5 17.5q-9 0 -20.5 -7.5t-18.5 -15.5l-7 -7q-43 13 -61 52q4 8 12.5 19.5t37 31t60.5 19.5q25 0 51.5 -17.5t41.5 -17.5q11 0 25 7q12 7 20 13l8 7q40 -13 56 -53z" />
<glyph unicode="&#xa1;" horiz-adv-x="255" d="M184 265l10 -479q-40 -8 -85 -8q-15 0 -47 2l10 479q30 8 73 8zM128 460q26 0 44.5 -18.5t18.5 -44.5t-18.5 -45t-44.5 -19t-45 19t-19 45t19 44.5t45 18.5z" />
<glyph unicode="&#xa2;" horiz-adv-x="435" d="M202 -77v74q-71 16 -118.5 71.5t-47.5 151.5q0 98 47 152.5t119 70.5v73q29 10 66 10l37 -3v-82q43 -13 70.5 -40.5t38.5 -51.5q-46 -35 -95 -37q-25 41 -66 41q-36 0 -62 -31.5t-26 -95.5q0 -66 26.5 -102.5t64.5 -36.5t65 49q23 0 47 -8.5t36 -16.5l13 -8 q-8 -27 -37.5 -59.5t-74.5 -45.5v-68q-31 -9 -69 -9z" />
<glyph unicode="&#xa3;" horiz-adv-x="500" d="M440 0h-362q-15 27 -15 49q0 23 12.5 66.5t14.5 62.5h-41q-2 47 12 79h31q4 97 59 145.5t141 48.5q35 0 70.5 -11.5t51 -20.5t22.5 -15q4 -48 -7 -95q-15 -3 -31 -3q-34 0 -67 8q0 46 -40 46q-67 0 -71 -103h126q4 -45 -11 -79h-116q-6 -56 -23 -92q20 4 37 4h222 q4 -40 -15 -90z" />
<glyph unicode="&#xa4;" horiz-adv-x="468" d="M348 22l-63 62q-29 -8 -53 -8q-25 0 -55 8l-56 -56q-7 3 -17.5 8t-32.5 24t-33 40l52 52q-15 27 -15 66q0 37 14 62l-26 26t-25 26q25 48 80 79l57 -56q33 12 57 12q29 0 59 -13l55 55q60 -27 84 -72l-56 -56q14 -25 14 -63q0 -32 -15 -62l56 -56q-29 -49 -81 -78z M232 153q22 0 35.5 16t13.5 49q0 71 -49 71q-22 0 -36 -20t-14 -51q0 -65 50 -65z" />
<glyph unicode="&#xa5;" horiz-adv-x="401" d="M344 85h-76v-81q-36 -8 -65 -8l-57 5v84h-93q-2 34 13 71h80v34h-93q-2 32 13 70h52l-51 89q-11 16 -45 16q-4 14 -4 32q0 20 6 36q57 20 112 12l49 -90q11 -18 24 -61q3 23 74 158q66 -4 102 -37l-90 -155h61q4 -34 -12 -70h-76v-34h88q4 -35 -12 -71z" />
<glyph unicode="&#xa6;" horiz-adv-x="273" d="M79 382v408q32 10 64 10l51 -5v-408q-32 -10 -64 -10zM79 -89v396q36 10 64 10l51 -6v-396q-36 -10 -64 -10z" />
<glyph unicode="&#xa7;" horiz-adv-x="480" d="M257 117l-65 23q-136 50 -136 180q0 75 65 127q-65 42 -65 116q0 60 48 103t134 43q46 0 81 -12.5t54.5 -32.5t28.5 -33t14 -27l-8.5 -11t-28 -19t-49.5 -15q-8 17 -31.5 36.5t-52.5 19.5q-27 0 -43.5 -10.5t-16.5 -27.5q0 -37 39 -51l64 -24q136 -53 136 -178 q0 -73 -61 -125q31 -18 46 -52.5t15 -71.5q0 -59 -49.5 -102.5t-135.5 -43.5q-44 0 -79 12.5t-54 31.5t-28.5 34t-13.5 28l8.5 11t28.5 19t52 15q10 -22 33 -40t49 -18q29 0 44 10.5t15 27.5q0 44 -38 57zM242 248l38 -15q30 43 30 85q0 41 -55 69q-3 1 -10 4t-11 4l-25 9 q-32 -42 -32 -78q0 -52 65 -78z" />
<glyph unicode="&#xa8;" horiz-adv-x="334" d="M256 757q-23 0 -40 17t-17 40q0 24 17 41t40 17q24 0 41 -17t17 -41q0 -23 -17 -40t-41 -17zM77 757q-23 0 -40 17t-17 40q0 24 17 41t40 17q24 0 41 -17t17 -41q0 -23 -17 -40t-41 -17z" />
<glyph unicode="&#xa9;" horiz-adv-x="541" d="M501 221q0 -96 -67.5 -163t-163.5 -67t-163 67t-67 163t67 163.5t163 67.5t163.5 -67.5t67.5 -163.5zM432 221q0 67 -47 114.5t-115 47.5q-67 0 -114 -47.5t-47 -114.5t47 -114t114 -47t114.5 47t47.5 114zM367 158q-6 -24 -33 -44.5t-63 -20.5q-48 0 -84.5 35t-36.5 96 t37.5 92t80.5 31q24 0 45.5 -9t31 -16.5t13.5 -13.5q4 -33 -4 -53q-9 -3 -21 -3t-19 2l-7 1q-1 18 -12 26.5t-27 8.5q-45 0 -45 -68q0 -29 13.5 -49t34.5 -20q28 0 42 24q31 -3 54 -19z" />
<glyph unicode="&#xaa;" horiz-adv-x="418" d="M323 533v-97q0 -11 5.5 -14t11.5 0l6 3q27 -39 27 -66q0 -3 -7.5 -12t-25.5 -18.5t-40 -9.5q-14 0 -28 6.5t-21 12.5l-7 6q-27 -27 -70 -27q-45 0 -87 28t-42 91q0 61 44 92t89 31q25 0 33 -7q-3 49 -32 49q-38 0 -76 -34q-37 20 -51 58q12 19 46.5 39t87.5 20 q137 0 137 -151zM212 396v88q-7 5 -19 5q-18 0 -29.5 -14t-11.5 -37q0 -20 11 -34t27 -14z" />
<glyph unicode="&#xab;" horiz-adv-x="454" d="M345 14l-118 203l120 210q60 -21 89 -55l-88 -152l88 -150q-32 -36 -91 -56zM142 14l-118 203l120 210q60 -21 89 -55l-88 -152l88 -150q-32 -36 -91 -56z" />
<glyph unicode="&#xac;" horiz-adv-x="467" d="M307 100v106h-269q-3 15 -3 37q0 38 10 67h388v-203q-45 -13 -74 -13z" />
<glyph unicode="&#xad;" horiz-adv-x="350" d="M295 206h-248q-6 54 10 104h246q2 -12 2 -31q0 -41 -10 -73z" />
<glyph unicode="&#xae;" horiz-adv-x="541" d="M501 221q0 -96 -67.5 -163t-163.5 -67t-163 67t-67 163t67 163.5t163 67.5t163.5 -67.5t67.5 -163.5zM432 221q0 67 -47 114.5t-115 47.5q-67 0 -114 -47.5t-47 -114.5t47 -114t114 -47t114.5 47t47.5 114zM301 108q-10 23 -28 69q-6 17 -14 17v-83l-60 -3v181q0 8 -17 8 q-3 20 3 36q38 10 83 10q39 0 65 -20t26 -53q0 -49 -40 -71q1 -3 3.5 -8l3.5 -7l13 -29q7 -12 23 -12q5 -14 0 -32q-11 -4 -26 -4.5t-25 0.5zM259 294v-51q5 -1 10 -1q27 0 27 28q0 12 -8 18.5t-20 6.5z" />
<glyph unicode="&#xaf;" horiz-adv-x="347" d="M318 753h-294q-3 15 -3 37q0 30 8 58h294q3 -15 3 -37q0 -30 -8 -58z" />
<glyph unicode="&#xb0;" horiz-adv-x="391" d="M195 360q-71 0 -120.5 48t-49.5 116t49.5 116t120.5 48t121 -48t50 -116t-50 -116t-121 -48zM195 459q25 0 42 18.5t17 46.5t-17 46.5t-42 18.5t-42 -18.5t-17 -46.5t17 -46.5t42 -18.5z" />
<glyph unicode="&#xb1;" horiz-adv-x="488" d="M447 292h-150v-149q-34 -10 -74 -10l-40 3v156h-151q-2 13 -2 32q0 36 9 68h144v141q33 10 73 10l41 -3v-148h161q5 -49 -11 -100zM447 0h-415q-2 12 -2 31q0 37 9 69h419q5 -50 -11 -100z" />
<glyph unicode="&#xb2;" horiz-adv-x="350" d="M285 296q-39 0 -117.5 0.5t-117.5 0.5q0 60 13 78l98 138q31 43 31 58q0 13 -10 21t-23 8q-30 -2 -55 -47q-18 8 -33 21.5t-21 23.5l-5 9q15 28 47 52t73 24q64 0 94.5 -30t30.5 -74q0 -38 -56 -115l-43 -60l-25 -26q20 5 28 5h104q1 -49 -13 -87z" />
<glyph unicode="&#xb3;" horiz-adv-x="350" d="M59 314q3 42 29 71q30 -14 55 -14q39 0 56 25q7 10 7 25q0 18 -12 31t-29 13l-20 -4q-2 3 -4.5 8t-7 22.5t0.5 36.5q26 3 39.5 15t13.5 24q0 17 -9.5 28t-26.5 11q-12 0 -26 -10q-15 -10 -23 -20l-8 -10q-31 13 -54 49q45 67 130 67q50 0 82 -30.5t32 -67.5 q0 -51 -51 -77q32 -5 52 -24.5t20 -52.5q0 -62 -42.5 -100t-114.5 -38q-46 0 -89 22z" />
<glyph unicode="&#xb4;" horiz-adv-x="245" d="M79 709q-41 30 -53 72q83 82 99 96q16 13 36 13q29 0 47 -24q15 -21 15 -39q0 -24 -27 -43q-18 -15 -117 -75z" />
<glyph unicode="&#xb5;" horiz-adv-x="517" d="M67 -213v546q0 35 -29 26l-3 -1q-26 33 -34 72q47 30 93 30q42 0 70.5 -26t28.5 -74v-197q0 -42 20.5 -62t48.5 -20q32 0 47 22v344q41 10 70 10l56 -5v-326q0 -40 28 -27l4 2q13 -11 23 -26t13 -25l3 -9q-33 -50 -96 -50q-25 0 -47.5 13t-34.5 30q-34 -43 -94 -43 q-36 0 -48 21q7 -21 7 -47v-171q-37 -9 -86 -9z" />
<glyph unicode="&#x3bc;" horiz-adv-x="517" d="M67 -213v546q0 35 -29 26l-3 -1q-26 33 -34 72q47 30 93 30q42 0 70.5 -26t28.5 -74v-197q0 -42 20.5 -62t48.5 -20q32 0 47 22v344q41 10 70 10l56 -5v-326q0 -40 28 -27l4 2q13 -11 23 -26t13 -25l3 -9q-33 -50 -96 -50q-25 0 -47.5 13t-34.5 30q-34 -43 -94 -43 q-36 0 -48 21q7 -21 7 -47v-171q-37 -9 -86 -9z" />
<glyph unicode="&#xb6;" horiz-adv-x="528" d="M199 -118v453h-23q-70 0 -113 49t-43 134q0 82 47 124t125 42q41 0 68 -6q27 -4 34 -10l7 -6v-785q-13 -2 -35 -2q-37 0 -67 7zM345 -120v784q32 9 68 9l38 -3v-694q0 -21 33 -21q8 -51 -8 -73q-38 -15 -70 -15q-12 0 -27.5 3.5t-24.5 6.5z" />
<glyph unicode="&#xb7;" horiz-adv-x="168" d="M84 187q-28 0 -48 19.5t-20 48.5t20 48.5t48 19.5t48 -19.5t20 -48.5t-20 -48.5t-48 -19.5z" />
<glyph unicode="&#xb8;" horiz-adv-x="337" d="M59 -72l60 136h88l-45 -99q21 3 40 3q48 -2 78.5 -25t30.5 -61q0 -54 -38 -81.5t-99 -27.5q-74 0 -131 29q9 41 39 63q41 -18 80 -18q24 0 38 10.5t14 24.5q0 12 -11.5 21.5t-37.5 9.5q-10 0 -22 -2.5t-19 -5.5l-7 -3q-17 3 -31.5 9.5t-20.5 11.5z" />
<glyph unicode="&#xb9;" horiz-adv-x="350" d="M292 296h-226q-1 51 13 85h60v184l-42 -26q-32 19 -46 65l92 66q20 4 41 4q22 0 49 -3v-290h70q2 -52 -11 -85z" />
<glyph unicode="&#xba;" horiz-adv-x="430" d="M215 317q-71 0 -123 47.5t-52 130.5t54 136t121 53q68 0 121.5 -52t53.5 -137q0 -84 -51.5 -131t-123.5 -47zM215 410q24 0 40 26t16 59q0 38 -14.5 67.5t-41.5 29.5q-26 0 -41 -30t-15 -67q0 -33 16 -59t40 -26z" />
<glyph unicode="&#xbb;" horiz-adv-x="454" d="M440 223l-120 -209q-60 20 -88 54l87 152l-87 151q31 35 91 56zM237 223l-120 -209q-60 20 -88 54l87 152l-87 151q31 35 91 56z" />
<glyph unicode="&#xbc;" horiz-adv-x="830" d="M217 39l404 657q59 -10 89 -48l-408 -660q-27 7 -48.5 20t-29.5 22zM343 296h-226q-1 51 13 85h60v184l-42 -26q-32 19 -46 65l92 66q20 4 41 4q22 0 49 -3v-290h70q2 -52 -11 -85zM795 64h-40v-85q-49 -12 -90 -6v91q-27 0 -81.5 0.5t-81.5 0.5q0 59 7 76l108 219 q54 -5 83 -34l-78 -150l-17 -27q18 2 25 2h35l17 79q50 10 73 3v-82h53q1 -50 -13 -87z" />
<glyph unicode="&#xbd;" horiz-adv-x="838" d="M211 39l404 657q59 -10 89 -48l-408 -660q-27 7 -48.5 20t-29.5 22zM343 296h-226q-1 51 13 85h60v184l-42 -26q-32 19 -46 65l92 66q20 4 41 4q22 0 49 -3v-290h70q2 -52 -11 -85zM788 -27q-39 0 -117.5 0.5t-117.5 0.5q0 60 13 78l98 138q31 43 31 58q0 13 -10 21 t-23 8q-30 -2 -55 -47q-18 8 -33 22q-14 12 -20 22l-6 10q15 28 47 52t73 24q64 0 94.5 -30t30.5 -74q0 -38 -56 -115l-43 -60l-25 -26q20 5 28 5h104q1 -49 -13 -87z" />
<glyph unicode="&#xbe;" horiz-adv-x="830" d="M196 39l404 657q59 -10 89 -48l-408 -660q-27 7 -49 20q-20 13 -28 22zM795 64h-40v-85q-49 -12 -90 -6v91q-27 0 -81.5 0.5t-81.5 0.5q0 59 7 76l108 219q54 -5 83 -34l-78 -150l-17 -27q18 2 25 2h35l17 79q50 10 73 3v-82h53q1 -50 -13 -87zM95 314q3 42 29 71 q30 -14 55 -14q39 0 56 25q7 10 7 25q0 18 -12 31t-29 13l-20 -4q-2 3 -4.5 8t-7 22.5t0.5 36.5q26 3 39.5 15t13.5 24q0 17 -9.5 28t-26.5 11q-12 0 -26 -10q-15 -10 -23 -20l-8 -10q-31 13 -54 49q45 67 130 67q50 0 82 -30.5t32 -67.5q0 -51 -51 -77q32 -5 52 -24.5 t20 -52.5q0 -62 -42.5 -100t-114.5 -38q-46 0 -89 22z" />
<glyph unicode="&#xbf;" horiz-adv-x="416" d="M180 278q43 8 79 8q8 0 19.5 -0.5t14.5 -0.5q10 -38 10 -67q0 -39 -15.5 -71.5t-37.5 -55l-44 -43.5t-37.5 -49.5t-15.5 -61.5q0 -28 17 -53.5t52 -25.5q23 0 44.5 14t31.5 28l10 13q54 -23 78 -58q-7 -13 -17 -25.5t-29.5 -29.5t-52 -27.5t-72.5 -10.5q-82 0 -135 50 t-53 124q0 43 16.5 80.5t39.5 63.5t46 48.5t39.5 46.5t16.5 48q0 34 -5 55zM170 397q0 26 19 44.5t45 18.5t44.5 -18.5t18.5 -44.5t-18.5 -45t-44.5 -19t-45 19t-19 45z" />
<glyph unicode="&#xc0;" horiz-adv-x="572" d="M442 2l-62 181h-182l-66 -191q-27 -1 -54.5 4.5t-41.5 11.5l-13 6l222 649q32 8 61 8l35 -3l193 -560q10 -27 45 -27q2 -14 2 -31q0 -31 -10 -45q-39 -13 -73 -13q-30 0 -56 10zM349 274l-42 134q-6 19 -10.5 39.5t-6.5 31.5l-1 11q-4 -40 -18 -82l-42 -134h120zM389 787 q-18 -48 -54 -71q-103 56 -120 68q-25 17 -25 47q0 19 12 36q19 26 45 26q18 0 37 -14q9 -6 35 -29l48 -43z" />
<glyph unicode="&#xc1;" horiz-adv-x="572" d="M442 2l-62 181h-182l-66 -191q-27 -1 -54.5 4.5t-41.5 11.5l-13 6l222 649q32 8 61 8l35 -3l193 -560q10 -27 45 -27q2 -14 2 -31q0 -31 -10 -45q-39 -13 -73 -13q-30 0 -56 10zM349 274l-42 134q-6 19 -10.5 39.5t-6.5 31.5l-1 11q-4 -40 -18 -82l-42 -134h120zM253 709 q-41 30 -53 72q83 82 99 96q16 13 36 13q29 0 47 -24q15 -21 15 -39q0 -24 -27 -43q-18 -15 -117 -75z" />
<glyph unicode="&#xc2;" horiz-adv-x="572" d="M442 2l-62 181h-182l-66 -191q-27 -1 -54.5 4.5t-41.5 11.5l-13 6l222 649q32 8 61 8l35 -3l193 -560q10 -27 45 -27q2 -14 2 -31q0 -31 -10 -45q-39 -13 -73 -13q-30 0 -56 10zM349 274l-42 134q-6 19 -10.5 39.5t-6.5 31.5l-1 11q-4 -40 -18 -82l-42 -134h120zM364 720 l-70 62l-69 -61q-19 12 -33 28q-16 16 -20 26l-4 10l92 91q4 1 10.5 2.5t25 3t33.5 0.5l96 -96q-14 -35 -61 -66z" />
<glyph unicode="&#xc3;" horiz-adv-x="572" d="M442 2l-62 181h-182l-66 -191q-27 -1 -54.5 4.5t-41.5 11.5l-13 6l222 649q32 8 61 8l35 -3l193 -560q10 -27 45 -27q2 -14 2 -31q0 -31 -10 -45q-39 -13 -73 -13q-30 0 -56 10zM349 274l-42 134q-6 19 -10.5 39.5t-6.5 31.5l-1 11q-4 -40 -18 -82l-42 -134h120zM454 791 q-4 -7 -11 -18t-34.5 -29.5t-60.5 -18.5q-30 0 -56.5 17.5t-42.5 17.5q-9 0 -21 -8q-11 -6 -18 -14l-7 -8q-43 13 -61 52q4 8 12.5 19.5t37 31t60.5 19.5q25 0 51.5 -17.5t41.5 -17.5q11 0 25 7q12 6 20 13l8 7q40 -13 56 -53z" />
<glyph unicode="&#xc4;" horiz-adv-x="572" d="M442 2l-62 181h-182l-66 -191q-27 -1 -54.5 4.5t-41.5 11.5l-13 6l222 649q32 8 61 8l35 -3l193 -560q10 -27 45 -27q2 -14 2 -31q0 -31 -10 -45q-39 -13 -73 -13q-30 0 -56 10zM349 274l-42 134q-6 19 -10.5 39.5t-6.5 31.5l-1 11q-4 -40 -18 -82l-42 -134h120zM387 757 q-23 0 -40 17t-17 40q0 24 17 41t40 17q24 0 41 -17t17 -41q0 -23 -17 -40t-41 -17zM208 757q-23 0 -40 17t-17 40q0 24 17 41t40 17q24 0 41 -17t17 -41q0 -23 -17 -40t-41 -17z" />
<glyph unicode="&#xc5;" horiz-adv-x="572" d="M442 2l-62 181h-182l-66 -191q-27 -1 -54.5 4.5t-41.5 11.5l-13 6l222 649q32 8 61 8l35 -3l193 -560q10 -27 45 -27q2 -14 2 -31q0 -31 -10 -45q-39 -13 -73 -13q-30 0 -56 10zM349 274l-42 134q-6 19 -10.5 39.5t-6.5 31.5l-1 11q-4 -40 -18 -82l-42 -134h120zM296 710 q-41 0 -70 29t-29 70t29 70t70 29t70 -29t29 -70t-29 -70t-70 -29zM296 777q13 0 22 9.5t9 22.5t-9 22t-22 9t-22.5 -9t-9.5 -22t9.5 -22.5t22.5 -9.5z" />
<glyph unicode="&#xc6;" horiz-adv-x="789" d="M764 0h-401v180h-156l-97 -189q-30 1 -56 11t-36 20l-10 10l340 639h421q4 -53 -17 -102h-278v-169h243q4 -53 -16 -102h-227v-196h306q5 -53 -16 -102zM363 277v168l3 79q1 -1 -17.5 -51.5t-25.5 -67.5l-61 -128h101z" />
<glyph unicode="&#xc7;" horiz-adv-x="608" d="M347 -8h-14l-12 -27q29 4 58 1q41 -5 66 -27.5t25 -56.5q0 -54 -38 -81.5t-99 -27.5q-74 0 -131 29q9 41 39 63q41 -18 80 -18q24 0 38 10.5t14 24.5q0 12 -11.5 21.5t-37.5 9.5q-10 0 -22 -2.5t-19 -5.5l-7 -3q-17 3 -31.5 9.5t-20.5 11.5l-6 5l34 78q-95 30 -154.5 116 t-59.5 219q0 87 27.5 155.5t73 107.5t96.5 58.5t105 19.5q41 0 79.5 -8.5t62 -19t45.5 -24.5t28.5 -20l11.5 -11q0 -72 -10 -121q-22 -3 -45 -3l-53 3q0 56 -34 80.5t-86 24.5q-77 0 -123 -67t-46 -173q0 -109 47.5 -178t131.5 -69q82 0 124 75l8 16q24 0 51.5 -7.5 t43.5 -15.5l15 -8q-16 -60 -79 -112t-165 -52z" />
<glyph unicode="&#xc8;" horiz-adv-x="526" d="M504 0h-420v557q0 12 -11.5 19.5t-26.5 7.5q-2 15 -2 32q0 30 8 43q35 12 87 12h367q2 -64 -13 -99h-282v-174h243q2 -64 -13 -99h-230v-200h306q2 -64 -13 -99zM381 787q-18 -48 -54 -71q-103 56 -120 68q-25 17 -25 47q0 19 12 36q19 26 45 26q18 0 37 -14q9 -6 35 -29 l48 -43z" />
<glyph unicode="&#xc9;" horiz-adv-x="526" d="M504 0h-420v557q0 12 -11.5 19.5t-26.5 7.5q-2 15 -2 32q0 30 8 43q35 12 87 12h367q2 -64 -13 -99h-282v-174h243q2 -64 -13 -99h-230v-200h306q2 -64 -13 -99zM258 709q-41 30 -53 72q83 82 99 96q16 13 36 13q29 0 47 -24q15 -21 15 -39q0 -24 -27 -43 q-18 -15 -117 -75z" />
<glyph unicode="&#xca;" horiz-adv-x="526" d="M504 0h-420v557q0 12 -11.5 19.5t-26.5 7.5q-2 15 -2 32q0 30 8 43q35 12 87 12h367q2 -64 -13 -99h-282v-174h243q2 -64 -13 -99h-230v-200h306q2 -64 -13 -99zM369 720l-70 62l-69 -61q-19 12 -33.5 28t-18.5 26l-5 10l92 91q4 1 10.5 2.5t25 3t33.5 0.5l96 -96 q-14 -35 -61 -66z" />
<glyph unicode="&#xcb;" horiz-adv-x="526" d="M504 0h-420v557q0 12 -11.5 19.5t-26.5 7.5q-2 15 -2 32q0 30 8 43q35 12 87 12h367q2 -64 -13 -99h-282v-174h243q2 -64 -13 -99h-230v-200h306q2 -64 -13 -99zM385 757q-23 0 -40 17t-17 40q0 24 17 41t40 17q24 0 41 -17t17 -41q0 -23 -17 -40t-41 -17zM206 757 q-23 0 -40 17t-17 40q0 24 17 41t40 17q24 0 41 -17t17 -41q0 -23 -17 -40t-41 -17z" />
<glyph unicode="&#xcc;" horiz-adv-x="295" d="M84 2v555q0 12 -11.5 19.5t-26.5 7.5q-2 15 -2 32q0 30 8 43q47 17 110 17l49 -3v-565q0 -13 11.5 -20t27.5 -7q2 -14 2 -31q0 -31 -10 -45q-39 -15 -85 -15q-15 0 -33 3t-29 6zM234 787q-18 -48 -54 -71q-103 56 -120 68q-25 17 -25 47q0 19 12 36q19 26 45 26 q18 0 37 -14q9 -6 35 -29l48 -43z" />
<glyph unicode="&#xcd;" horiz-adv-x="295" d="M84 2v555q0 12 -11.5 19.5t-26.5 7.5q-2 15 -2 32q0 30 8 43q47 17 110 17l49 -3v-565q0 -13 11.5 -20t27.5 -7q2 -14 2 -31q0 -31 -10 -45q-39 -15 -85 -15q-15 0 -33 3t-29 6zM103 709q-41 30 -53 72q83 82 99 96q16 13 36 13q29 0 47 -24q15 -21 15 -39q0 -24 -27 -43 q-18 -15 -117 -75z" />
<glyph unicode="&#xce;" horiz-adv-x="295" d="M84 2v555q0 12 -11.5 19.5t-26.5 7.5q-2 15 -2 32q0 30 8 43q47 17 110 17l49 -3v-565q0 -13 11.5 -20t27.5 -7q2 -14 2 -31q0 -31 -10 -45q-39 -15 -85 -15q-15 0 -33 3t-29 6zM209 720l-70 62l-69 -61q-19 12 -33.5 28t-18.5 26l-5 10l92 91q4 1 10.5 2.5t25 3 t33.5 0.5l96 -96q-14 -35 -61 -66z" />
<glyph unicode="&#xcf;" horiz-adv-x="295" d="M84 2v555q0 12 -11.5 19.5t-26.5 7.5q-2 15 -2 32q0 30 8 43q47 17 110 17l49 -3v-565q0 -13 11.5 -20t27.5 -7q2 -14 2 -31q0 -31 -10 -45q-39 -15 -85 -15q-15 0 -33 3t-29 6zM238 757q-23 0 -40 17t-17 40q0 24 17 41t40 17q24 0 41 -17t17 -41q0 -23 -17 -40t-41 -17 zM59 757q-23 0 -40 17t-17 40q0 24 17 41t40 17q24 0 41 -17t17 -41q0 -23 -17 -40t-41 -17z" />
<glyph unicode="&#xd0;" horiz-adv-x="660" d="M104 3v285h-59q-6 43 9 93h50v176q0 12 -11.5 19.5t-26.5 7.5q-2 15 -2 32q0 30 8 43q67 24 189 24q164 0 262.5 -97.5t98.5 -255.5q0 -157 -91.5 -247.5t-248.5 -90.5q-36 0 -80 3q-46 3 -72 5zM376 288h-145v-187q18 -3 39 -3q111 0 166.5 63t55.5 171q0 109 -59.5 178 t-170.5 69l-31 -2v-196h152q3 -12 3 -31q0 -32 -10 -62z" />
<glyph unicode="&#xd1;" horiz-adv-x="639" d="M473 -3l-252 409q-9 15 -17.5 34.5t-12.5 31.5l-4 12q10 -44 10 -84l2 -394q-35 -9 -76 -9l-39 2v558q0 12 -11.5 19.5t-26.5 7.5q-2 15 -2 32q0 30 8 43q47 17 98 17l38 -3l243 -394q27 -44 41 -86q-10 43 -10 90l-2 380q32 10 73 10l39 -3v-664q-24 -7 -48.5 -9 t-37.5 -1zM474 791q-4 -7 -11 -18t-34.5 -29.5t-60.5 -18.5q-30 0 -56.5 17.5t-42.5 17.5q-9 0 -21 -8q-11 -6 -18 -14l-7 -8q-43 13 -61 52q4 8 12.5 19.5t37 31t60.5 19.5q25 0 51.5 -17.5t41.5 -17.5q11 0 25 7q12 6 20 13l8 7q40 -13 56 -53z" />
<glyph unicode="&#xd2;" d="M340 -8q-133 0 -217.5 95t-84.5 248t84.5 250t217.5 97q132 0 216 -97t84 -250t-83.5 -248t-216.5 -95zM340 98q76 0 119 64t43 173t-43 176t-119 67t-120 -67t-44 -176q0 -108 43.5 -172.5t120.5 -64.5zM439 787q-18 -48 -54 -71q-103 56 -120 68q-25 17 -25 47 q0 19 12 36q19 26 45 26q18 0 37 -14q9 -6 35 -29l48 -43z" />
<glyph unicode="&#xd3;" d="M340 -8q-133 0 -217.5 95t-84.5 248t84.5 250t217.5 97q132 0 216 -97t84 -250t-83.5 -248t-216.5 -95zM340 98q76 0 119 64t43 173t-43 176t-119 67t-120 -67t-44 -176q0 -108 43.5 -172.5t120.5 -64.5zM310 709q-41 30 -53 72q83 82 99 96q16 13 36 13q29 0 47 -24 q15 -21 15 -39q0 -24 -27 -43q-18 -15 -117 -75z" />
<glyph unicode="&#xd4;" d="M340 -8q-133 0 -217.5 95t-84.5 248t84.5 250t217.5 97q132 0 216 -97t84 -250t-83.5 -248t-216.5 -95zM340 98q76 0 119 64t43 173t-43 176t-119 67t-120 -67t-44 -176q0 -108 43.5 -172.5t120.5 -64.5zM410 720l-70 62l-69 -61q-19 12 -33 28q-16 16 -20 26l-4 10 l92 91q4 1 10.5 2.5t25 3t33.5 0.5l96 -96q-14 -35 -61 -66z" />
<glyph unicode="&#xd5;" d="M340 -8q-133 0 -217.5 95t-84.5 248t84.5 250t217.5 97q132 0 216 -97t84 -250t-83.5 -248t-216.5 -95zM340 98q76 0 119 64t43 173t-43 176t-119 67t-120 -67t-44 -176q0 -108 43.5 -172.5t120.5 -64.5zM501 791q-4 -7 -11 -18t-34.5 -29.5t-60.5 -18.5 q-30 0 -56.5 17.5t-42.5 17.5q-9 0 -20 -8q-12 -6 -19 -14l-7 -8q-43 13 -61 52q4 8 12.5 19.5t37 31t60.5 19.5q25 0 51.5 -17.5t41.5 -17.5q11 0 24.5 6.5t21.5 13.5l7 7q40 -13 56 -53z" />
<glyph unicode="&#xd6;" d="M340 -8q-133 0 -217.5 95t-84.5 248t84.5 250t217.5 97q132 0 216 -97t84 -250t-83.5 -248t-216.5 -95zM340 98q76 0 119 64t43 173t-43 176t-119 67t-120 -67t-44 -176q0 -108 43.5 -172.5t120.5 -64.5zM435 757q-23 0 -40 17t-17 40q0 24 17 41t40 17q24 0 41 -17 t17 -41q0 -23 -17 -40t-41 -17zM256 757q-23 0 -40 17t-17 40q0 24 17 41t40 17q24 0 41 -17t17 -41q0 -23 -17 -40t-41 -17z" />
<glyph unicode="&#xd7;" horiz-adv-x="436" d="M335 34l-118 117l-117 -116q-48 36 -70 79l112 113l-112 111q10 19 28.5 38.5t31.5 29.5l13 10l115 -114l117 115q48 -32 70 -77l-112 -113l114 -115q-25 -46 -72 -78z" />
<glyph unicode="&#xd8;" d="M248 5l-23 -52q-59 5 -90 31l28 65q-125 95 -125 286q0 153 84.5 250t217.5 97q50 0 93 -15l17 38q60 -2 90 -31l-23 -52q58 -46 90.5 -120.5t32.5 -166.5q0 -153 -83.5 -248t-216.5 -95q-46 0 -92 13zM215 168l175 401q-22 9 -50 9q-76 0 -120 -67t-44 -176 q0 -103 39 -167zM464 501l-172 -395q24 -8 48 -8q76 0 119 64t43 173q0 102 -38 166z" />
<glyph unicode="&#xd9;" horiz-adv-x="608" d="M428 219v446q40 11 71 11l53 -3v-458q0 -59 -21 -103.5t-56.5 -69.5t-77.5 -37.5t-90 -12.5q-94 0 -163.5 61t-69.5 153v351q0 12 -11.5 19.5t-26.5 7.5q-2 15 -2 32q0 30 8 43q47 17 110 17l49 -3v-440q0 -76 34 -109t81 -33q44 0 78 32.5t34 95.5zM404 787 q-18 -48 -54 -71q-103 56 -120 68q-25 17 -25 47q0 19 12 36q19 26 45 26q18 0 37 -14q9 -6 35 -29l48 -43z" />
<glyph unicode="&#xda;" horiz-adv-x="608" d="M428 219v446q40 11 71 11l53 -3v-458q0 -59 -21 -103.5t-56.5 -69.5t-77.5 -37.5t-90 -12.5q-94 0 -163.5 61t-69.5 153v351q0 12 -11.5 19.5t-26.5 7.5q-2 15 -2 32q0 30 8 43q47 17 110 17l49 -3v-440q0 -76 34 -109t81 -33q44 0 78 32.5t34 95.5zM283 709 q-41 30 -53 72q83 82 99 96q16 13 36 13q29 0 47 -24q15 -21 15 -39q0 -24 -27 -43q-18 -15 -117 -75z" />
<glyph unicode="&#xdb;" horiz-adv-x="608" d="M428 219v446q40 11 71 11l53 -3v-458q0 -59 -21 -103.5t-56.5 -69.5t-77.5 -37.5t-90 -12.5q-94 0 -163.5 61t-69.5 153v351q0 12 -11.5 19.5t-26.5 7.5q-2 15 -2 32q0 30 8 43q47 17 110 17l49 -3v-440q0 -76 34 -109t81 -33q44 0 78 32.5t34 95.5zM387 720l-70 62 l-69 -61q-19 12 -33.5 28t-18.5 26l-5 10l92 91q4 1 10.5 2.5t25 3t33.5 0.5l96 -96q-14 -35 -61 -66z" />
<glyph unicode="&#xdc;" horiz-adv-x="608" d="M428 219v446q40 11 71 11l53 -3v-458q0 -59 -21 -103.5t-56.5 -69.5t-77.5 -37.5t-90 -12.5q-94 0 -163.5 61t-69.5 153v351q0 12 -11.5 19.5t-26.5 7.5q-2 15 -2 32q0 30 8 43q47 17 110 17l49 -3v-440q0 -76 34 -109t81 -33q44 0 78 32.5t34 95.5zM405 757 q-23 0 -40 17t-17 40q0 24 17 41t40 17q24 0 41 -17t17 -41q0 -23 -17 -40t-41 -17zM226 757q-23 0 -40 17t-17 40q0 24 17 41t40 17q24 0 41 -17t17 -41q0 -23 -17 -40t-41 -17z" />
<glyph unicode="&#xdd;" horiz-adv-x="497" d="M186 0v301l-148 256q-6 10 -25 18.5t-34 8.5q-2 15 -2 32q0 30 8 43q40 17 86 17l34 -3l115 -208q7 -12 15 -30.5t13 -31.5l5 -13q18 49 33 75l121 219q28 -3 54 -13q26 -11 38 -19l12 -8l-197 -340v-298q-37 -11 -70 -11zM219 709q-41 30 -53 72q83 82 99 96 q16 13 36 13q29 0 47 -24q15 -21 15 -39q0 -24 -27 -43q-18 -15 -117 -75z" />
<glyph unicode="&#xde;" horiz-adv-x="509" d="M79 2v558q0 22 -33 22q-2 15 -2 33q0 31 8 44q47 17 107 17l47 -3v-92q4 0 15 0.5t15 0.5q71 0 128.5 -21t96 -70t38.5 -121q0 -110 -66 -165.5t-190 -55.5q-26 0 -37 1v-48q0 -22 34 -22q2 -14 2 -30q0 -31 -10 -45q-39 -15 -81 -15q-14 0 -32 3t-29 6zM206 485v-238 q24 -2 41 -2q125 0 125 122q0 63 -40 92t-93 29q-17 0 -33 -3z" />
<glyph unicode="&#xdf;" horiz-adv-x="581" d="M386 177l-54 20q-100 37 -100 140q0 38 18.5 69.5l37 60.5t18.5 59q0 69 -47 69q-20 0 -39 -21.5t-19 -69.5v-498q-39 -11 -69 -11l-56 5v349h-67q-3 43 13 95h54v61q0 96 55 140.5t129 44.5q76 0 122 -40.5t46 -123.5q0 -76 -46 -137v1q-26 -36 -26 -53q0 -27 26 -37 l57 -21q119 -45 119 -150q0 -51 -45 -94t-125 -43q-74 0 -119 38.5t-54 74.5q16 10 39.5 19.5t39.5 14.5l15 5l3 -6t9 -14.5t14.5 -18t18.5 -14t22 -6.5q56 0 56 40q0 34 -47 52h1z" />
<glyph unicode="&#xe0;" horiz-adv-x="461" d="M314 551q-21 -34 -62 -53q-93 82 -109 98q-18 20 -18 41t16 37q17 17 39 17q28 0 50 -24q7 -7 28 -36l38 -55zM389 270v-144q0 -40 28 -27l4 2q13 -11 23 -26t13 -25l3 -9q-3 -6 -10 -14t-31 -22t-51 -14q-54 0 -87 43q-15 -19 -41 -31t-54 -12q-62 0 -107 36.5 t-45 114.5q0 75 55 114.5t125 39.5q25 0 51 -8q-5 73 -60 73q-49 0 -99 -39q-41 33 -52 79q72 59 159 59q176 0 176 -190zM264 98v112q-21 8 -46 8q-28 0 -46 -19t-18 -54q0 -29 18 -46t40 -17q32 0 52 16z" />
<glyph unicode="&#xe1;" horiz-adv-x="461" d="M210 495q-1 0 -6.5 2.5t-7.5 4t-8 4.5t-9.5 5.5t-9 7t-9.5 9.5l-9 11.5t-9 13.5q62 99 75 116q17 23 44 23q21 0 39 -15q24 -20 24 -43q0 -19 -17 -39q-14 -19 -97 -100zM389 270v-144q0 -40 28 -27l4 2q13 -11 23 -26t13 -25l3 -9q-3 -6 -10 -14t-31 -22t-51 -14 q-54 0 -87 43q-15 -19 -41 -31t-54 -12q-62 0 -107 36.5t-45 114.5q0 75 55 114.5t125 39.5q25 0 51 -8q-5 73 -60 73q-49 0 -99 -39q-41 33 -52 79q72 59 159 59q176 0 176 -190zM264 98v112q-21 8 -46 8q-28 0 -46 -19t-18 -54q0 -29 18 -46t40 -17q32 0 52 16z" />
<glyph unicode="&#xe2;" horiz-adv-x="461" d="M265 495l-50 56l-48 -55q-22 11 -39 25q-18 15 -24 23l-7 8l83 99q4 1 11 2.5t26 3.5t35 1l85 -104q-26 -36 -72 -59zM389 270v-144q0 -40 28 -27l4 2q13 -11 23 -26t13 -25l3 -9q-3 -6 -10 -14t-31 -22t-51 -14q-54 0 -87 43q-15 -19 -41 -31t-54 -12q-62 0 -107 36.5 t-45 114.5q0 75 55 114.5t125 39.5q25 0 51 -8q-5 73 -60 73q-49 0 -99 -39q-41 33 -52 79q72 59 159 59q176 0 176 -190zM264 98v112q-21 8 -46 8q-28 0 -46 -19t-18 -54q0 -29 18 -46t40 -17q32 0 52 16z" />
<glyph unicode="&#xe3;" horiz-adv-x="461" d="M389 270v-144q0 -40 28 -27l4 2q13 -11 23 -26t13 -25l3 -9q-3 -6 -10 -14t-31 -22t-51 -14q-54 0 -87 43q-15 -19 -41 -31t-54 -12q-62 0 -107 36.5t-45 114.5q0 75 55 114.5t125 39.5q25 0 51 -8q-5 73 -60 73q-49 0 -99 -39q-41 33 -52 79q72 59 159 59 q176 0 176 -190zM264 98v112q-21 8 -46 8q-28 0 -46 -19t-18 -54q0 -29 18 -46t40 -17q32 0 52 16zM383 569q-4 -7 -11 -18t-34.5 -29.5t-60.5 -18.5q-30 0 -56.5 17.5t-42.5 17.5q-9 0 -20 -8q-12 -6 -19 -14l-7 -8q-43 13 -61 52q4 8 12.5 19.5t37 31t60.5 19.5 q25 0 51.5 -17.5t41.5 -17.5q11 0 24.5 6.5t21.5 13.5l7 7q40 -13 56 -53z" />
<glyph unicode="&#xe4;" horiz-adv-x="461" d="M312 527q-23 0 -40 17t-17 40q0 24 17 41t40 17q24 0 41 -17t17 -41q0 -23 -17 -40t-41 -17zM136 527q-23 0 -40 17t-17 40q0 24 17 41t40 17q24 0 41 -17t17 -41q0 -23 -17 -40t-41 -17zM389 270v-144q0 -40 28 -27l4 2q13 -11 23 -26t13 -25l3 -9q-3 -6 -10 -14 t-31 -22t-51 -14q-54 0 -87 43q-15 -19 -41 -31t-54 -12q-62 0 -107 36.5t-45 114.5q0 75 55 114.5t125 39.5q25 0 51 -8q-5 73 -60 73q-49 0 -99 -39q-41 33 -52 79q72 59 159 59q176 0 176 -190zM264 98v112q-21 8 -46 8q-28 0 -46 -19t-18 -54q0 -29 18 -46t40 -17 q32 0 52 16z" />
<glyph unicode="&#xe5;" horiz-adv-x="461" d="M221 497q-41 0 -70 29t-29 70t29 70t70 29t70 -29t29 -70t-29 -70t-70 -29zM221 564q13 0 22 9.5t9 22.5t-9 22t-22 9t-22.5 -9t-9.5 -22t9.5 -22.5t22.5 -9.5zM389 270v-144q0 -40 28 -27l4 2q13 -11 23 -26t13 -25l3 -9q-3 -6 -10 -14t-31 -22t-51 -14q-54 0 -87 43 q-15 -19 -41 -31t-54 -12q-62 0 -107 36.5t-45 114.5q0 75 55 114.5t125 39.5q25 0 51 -8q-5 73 -60 73q-49 0 -99 -39q-41 33 -52 79q72 59 159 59q176 0 176 -190zM264 98v112q-21 8 -46 8q-28 0 -46 -19t-18 -54q0 -29 18 -46t40 -17q32 0 52 16z" />
<glyph unicode="&#xe6;" horiz-adv-x="682" d="M330 51q-21 -24 -58.5 -41.5t-73.5 -17.5q-66 0 -115 36.5t-49 115.5q0 43 19 75t48 47.5t56 22.5t51 7q40 0 65 -9q-3 33 -20 55t-48 22q-24 0 -47 -10q-34 -14 -51 -31q-37 23 -53 78q75 59 163 59q47 0 79.5 -19.5t47.5 -47.5q17 27 52 47.5t78 20.5q76 0 127.5 -55.5 t51.5 -158.5q0 -34 -60 -53t-138 -19q-43 0 -67 7q11 -98 93 -100q28 -1 52.5 19.5t29.5 36.5q54 -1 90 -32q-22 -46 -69.5 -80t-106.5 -34q-93 0 -147 59zM388 261q38 -5 63 -5q84 0 84 15q0 34 -16.5 63.5t-48.5 29.5t-53.5 -26.5t-28.5 -76.5zM270 208q-19 8 -48 8 q-28 0 -48 -16.5t-20 -52.5q0 -30 20 -47.5t45 -17.5q38 0 71 23q-18 41 -20 103z" />
<glyph unicode="&#xe7;" horiz-adv-x="435" d="M248 -8l-12 -27q20 4 47 2q45 -3 73.5 -25.5t28.5 -59.5q0 -54 -38 -81.5t-99 -27.5q-74 0 -131 29q9 41 39 63q41 -18 80 -18q24 0 38 10.5t14 24.5q0 12 -11.5 21.5t-37.5 9.5q-14 0 -32 -6l-16 -5q-17 3 -31.5 9.5t-20.5 11.5l-6 5l34 78q-58 21 -94.5 74t-36.5 140 q0 118 65.5 179t149.5 61q117 0 163 -105q-45 -30 -96 -34q-10 14 -16.5 22t-20 15.5t-28.5 7.5q-35 0 -61.5 -37.5t-26.5 -102.5q0 -66 26.5 -103t64.5 -37q37 0 66 53q23 0 47 -8t36 -16l12 -8q-9 -37 -53.5 -76t-112.5 -39h-3z" />
<glyph unicode="&#xe8;" horiz-adv-x="458" d="M339 551q-21 -34 -62 -53q-93 82 -109 98q-18 20 -18 41t16 37q17 17 39 17q27 0 50 -24q7 -7 28 -36l39 -55zM429 105q-14 -41 -62.5 -77t-116.5 -36q-37 0 -73 12.5t-68.5 38.5t-52.5 72.5t-20 106.5q0 116 65 177t141 61q77 0 131.5 -56.5t54.5 -154.5 q0 -35 -61.5 -56t-137.5 -21q-34 0 -63 6q9 -94 91 -94q27 0 50 19t32 35q24 0 46.5 -8.5t32.5 -16.5zM167 260q32 -4 58 -4q76 0 76 14q0 34 -15 67t-43 33q-68 0 -76 -110z" />
<glyph unicode="&#xe9;" horiz-adv-x="458" d="M217 495q-1 0 -6.5 2.5t-7.5 4t-8 4.5t-9.5 5.5t-9 7t-9.5 9.5l-9 11.5t-9 13.5q62 99 75 116q17 23 44 23q21 0 39 -15q24 -20 24 -43q0 -19 -17 -39q-14 -19 -97 -100zM429 105q-14 -41 -62.5 -77t-116.5 -36q-37 0 -73 12.5t-68.5 38.5t-52.5 72.5t-20 106.5 q0 116 65 177t141 61q77 0 131.5 -56.5t54.5 -154.5q0 -35 -61.5 -56t-137.5 -21q-34 0 -63 6q9 -94 91 -94q27 0 50 19t32 35q24 0 46.5 -8.5t32.5 -16.5zM167 260q32 -4 58 -4q76 0 76 14q0 34 -15 67t-43 33q-68 0 -76 -110z" />
<glyph unicode="&#xea;" horiz-adv-x="458" d="M295 495l-50 56l-48 -55q-22 11 -39 25q-18 15 -24 23l-7 8l83 99q4 1 11 2.5t26 3.5t35 1l85 -104q-26 -36 -72 -59zM429 105q-14 -41 -62.5 -77t-116.5 -36q-37 0 -73 12.5t-68.5 38.5t-52.5 72.5t-20 106.5q0 116 65 177t141 61q77 0 131.5 -56.5t54.5 -154.5 q0 -35 -61.5 -56t-137.5 -21q-34 0 -63 6q9 -94 91 -94q27 0 50 19t32 35q24 0 46.5 -8.5t32.5 -16.5zM167 260q32 -4 58 -4q76 0 76 14q0 34 -15 67t-43 33q-68 0 -76 -110z" />
<glyph unicode="&#xeb;" horiz-adv-x="458" d="M332 527q-23 0 -40 17t-17 40q0 24 17 41t40 17q24 0 41 -17t17 -41q0 -23 -17 -40t-41 -17zM156 527q-23 0 -40 17t-17 40q0 24 17 41t40 17q24 0 41 -17t17 -41q0 -23 -17 -40t-41 -17zM429 105q-14 -41 -62.5 -77t-116.5 -36q-37 0 -73 12.5t-68.5 38.5t-52.5 72.5 t-20 106.5q0 116 65 177t141 61q77 0 131.5 -56.5t54.5 -154.5q0 -35 -61.5 -56t-137.5 -21q-34 0 -63 6q9 -94 91 -94q27 0 50 19t32 35q24 0 46.5 -8.5t32.5 -16.5zM167 260q32 -4 58 -4q76 0 76 14q0 34 -15 67t-43 33q-68 0 -76 -110z" />
<glyph unicode="&#xec;" horiz-adv-x="276" d="M213 551q-21 -34 -62 -53q-93 82 -109 98q-18 20 -18 41t16 37q17 17 39 17q27 0 50 -24q7 -7 28 -36l39 -55zM75 96v237q0 35 -29 26l-3 -1q-26 33 -34 72q47 30 92 30q42 0 70 -26t28 -74v-234q0 -33 19 -30l13 5q13 -11 23 -26t13 -25l3 -9q-3 -5 -10.5 -13.5t-33 -22 t-55.5 -13.5q-43 0 -69.5 31.5t-26.5 72.5z" />
<glyph unicode="&#xed;" horiz-adv-x="276" d="M95 495q-1 0 -6.5 2.5t-7.5 4t-8 4.5t-9.5 5.5t-9 7t-9.5 9.5l-9 11.5t-9 13.5q62 99 75 116q17 23 44 23q21 0 39 -15q24 -20 24 -43q0 -19 -17 -39q-14 -19 -97 -100zM75 96v237q0 35 -29 26l-3 -1q-26 33 -34 72q47 30 92 30q42 0 70 -26t28 -74v-234q0 -33 19 -30 l13 5q13 -11 23 -26t13 -25l3 -9q-3 -5 -10.5 -13.5t-33 -22t-55.5 -13.5q-43 0 -69.5 31.5t-26.5 72.5z" />
<glyph unicode="&#xee;" horiz-adv-x="276" d="M166 495l-50 56l-48 -55q-22 11 -40 25q-18 15 -24 23l-6 8l83 99q4 1 11 2.5t26 3.5t35 1l85 -104q-26 -36 -72 -59zM75 96v237q0 35 -29 26l-3 -1q-26 33 -34 72q47 30 92 30q42 0 70 -26t28 -74v-234q0 -33 19 -30l13 5q13 -11 23 -26t13 -25l3 -9q-3 -5 -10.5 -13.5 t-33 -22t-55.5 -13.5q-43 0 -69.5 31.5t-26.5 72.5z" />
<glyph unicode="&#xef;" horiz-adv-x="276" d="M213 527q-23 0 -40 17t-17 40q0 24 17 41t40 17q24 0 41 -17t17 -41q0 -23 -17 -40t-41 -17zM37 527q-23 0 -40 17t-17 40q0 24 17 41t40 17q24 0 41 -17t17 -41q0 -23 -17 -40t-41 -17zM75 96v237q0 35 -29 26l-3 -1q-26 33 -34 72q47 30 92 30q42 0 70 -26t28 -74v-234 q0 -33 19 -30l13 5q13 -11 23 -26t13 -25l3 -9q-3 -5 -10.5 -13.5t-33 -22t-55.5 -13.5q-43 0 -69.5 31.5t-26.5 72.5z" />
<glyph unicode="&#xf0;" horiz-adv-x="504" d="M434 585l-62 -43q100 -100 100 -269q0 -29 -3 -58q-14 -101 -70 -162t-143 -61q-95 0 -150 62t-55 148q0 52 16.5 93t43.5 65t56.5 36t59.5 12q85 0 121 -66q-18 83 -65 138l-72 -50q-24 16 -41 62l48 34q-51 22 -117 19q-11 21 -17 43t-6 32l-1 10q33 5 61 5 q96 0 172 -46l83 57q26 -20 41 -61zM253 92q35 0 57.5 25.5t31.5 70.5q3 14 5 46q-37 80 -97 80q-33 0 -57 -29t-24 -81q0 -44 23.5 -78t60.5 -34z" />
<glyph unicode="&#xf1;" horiz-adv-x="518" d="M323 96v181q0 85 -65 85q-12 0 -25 -6t-20 -12l-7 -7v-331q-39 -11 -70 -11l-56 5v333q0 35 -29 26l-3 -1q-26 33 -34 72q47 30 92 30q50 0 77 -44q37 44 99 44q70 0 118.5 -45t48.5 -139v-150q0 -40 28 -27l4 2q13 -11 23 -26t13 -25l3 -9q-4 -6 -11 -14t-33.5 -22 t-56.5 -14q-43 0 -69.5 32t-26.5 73zM410 569q-4 -7 -11 -18t-34.5 -29.5t-60.5 -18.5q-30 0 -56.5 17.5t-42.5 17.5q-9 0 -21 -8q-11 -6 -18 -14l-7 -8q-43 13 -61 52q4 8 12.5 19.5t37 31t60.5 19.5q25 0 51.5 -17.5t41.5 -17.5q11 0 25 7q12 6 20 13l8 7q40 -13 56 -53z " />
<glyph unicode="&#xf2;" horiz-adv-x="501" d="M341 551q-21 -34 -62 -53q-93 82 -109 98q-18 20 -18 41t16 37q17 17 39 17q27 0 50 -24q7 -7 28 -36l39 -55zM251 -8q-89 0 -152 60t-63 169q0 108 66 173.5t149 65.5q86 0 150 -64t64 -175q0 -109 -63.5 -169t-150.5 -60zM251 83q41 0 62.5 41t21.5 97q0 61 -20 102.5 t-64 41.5t-64.5 -42t-20.5 -102q0 -56 22 -97t63 -41z" />
<glyph unicode="&#xf3;" horiz-adv-x="501" d="M238 495q-1 0 -6.5 2.5t-7.5 4t-8 4.5t-9.5 5.5t-9 7t-9.5 9.5l-9 11.5t-9 13.5q62 99 75 116q17 23 44 23q21 0 39 -15q24 -20 24 -43q0 -19 -17 -39q-14 -19 -97 -100zM251 -8q-89 0 -152 60t-63 169q0 108 66 173.5t149 65.5q86 0 150 -64t64 -175q0 -109 -63.5 -169 t-150.5 -60zM251 83q41 0 62.5 41t21.5 97q0 61 -20 102.5t-64 41.5t-64.5 -42t-20.5 -102q0 -56 22 -97t63 -41z" />
<glyph unicode="&#xf4;" horiz-adv-x="501" d="M304 495l-50 56l-48 -55q-22 11 -40 25q-18 15 -24 23l-6 8l83 99q4 1 11 2.5t26 3.5t35 1l85 -104q-26 -36 -72 -59zM251 -8q-89 0 -152 60t-63 169q0 108 66 173.5t149 65.5q86 0 150 -64t64 -175q0 -109 -63.5 -169t-150.5 -60zM251 83q41 0 62.5 41t21.5 97 q0 61 -20 102.5t-64 41.5t-64.5 -42t-20.5 -102q0 -56 22 -97t63 -41z" />
<glyph unicode="&#xf5;" horiz-adv-x="501" d="M251 -8q-89 0 -152 60t-63 169q0 108 66 173.5t149 65.5q86 0 150 -64t64 -175q0 -109 -63.5 -169t-150.5 -60zM251 83q41 0 62.5 41t21.5 97q0 61 -20 102.5t-64 41.5t-64.5 -42t-20.5 -102q0 -56 22 -97t63 -41zM415 569q-4 -7 -11 -18t-34.5 -29.5t-60.5 -18.5 q-30 0 -56.5 17.5t-42.5 17.5q-9 0 -20 -8q-12 -6 -19 -14l-7 -8q-43 13 -61 52q4 8 12.5 19.5t37 31t60.5 19.5q25 0 51.5 -17.5t41.5 -17.5q11 0 24.5 6.5t21.5 13.5l7 7q40 -13 56 -53z" />
<glyph unicode="&#xf6;" horiz-adv-x="501" d="M342 527q-23 0 -40 17t-17 40q0 24 17 41t40 17q24 0 41 -17t17 -41q0 -23 -17 -40t-41 -17zM166 527q-23 0 -40 17t-17 40q0 24 17 41t40 17q24 0 41 -17t17 -41q0 -23 -17 -40t-41 -17zM251 -8q-89 0 -152 60t-63 169q0 108 66 173.5t149 65.5q86 0 150 -64t64 -175 q0 -109 -63.5 -169t-150.5 -60zM251 83q41 0 62.5 41t21.5 97q0 61 -20 102.5t-64 41.5t-64.5 -42t-20.5 -102q0 -56 22 -97t63 -41z" />
<glyph unicode="&#xf7;" horiz-adv-x="465" d="M227 321q-29 0 -48.5 19t-19.5 46t19 45.5t49 18.5q29 0 47 -18t18 -46q0 -27 -18 -46t-47 -19zM426 194h-395q-2 12 -2 30q0 39 10 70h394q2 -13 2 -33q0 -36 -9 -67zM227 28q-29 0 -48.5 19t-19.5 46t19 45.5t49 18.5q29 0 47 -18t18 -46q0 -27 -18 -46t-47 -19z" />
<glyph unicode="&#xf8;" horiz-adv-x="501" d="M216 -5l-15 -50q-18 -1 -33 3q-16 6 -23 10l-7 4l15 51q-53 26 -85 79t-32 129q0 108 66 173.5t149 65.5q19 0 35 -3l11 35q17 3 32.5 -1.5t22.5 -10.5l7 -6l-12 -38q53 -28 85.5 -83t32.5 -132q0 -109 -63.5 -169t-150.5 -60q-2 0 -35 3zM187 125l72 239q-3 1 -8 1 q-44 0 -64.5 -42t-20.5 -102q0 -58 21 -96zM314 324l-72 -241h9q41 0 62.5 41t21.5 97q0 64 -21 103z" />
<glyph unicode="&#xf9;" horiz-adv-x="517" d="M331 551q-21 -34 -62 -53q-93 82 -109 98q-18 20 -18 41t16 37q17 17 39 17q27 0 50 -24q7 -7 28 -36l39 -55zM309 106v341q41 10 70 10l56 -5v-326q0 -40 28 -27l4 2q13 -11 23 -26t13 -25l3 -9q-33 -50 -96 -50q-25 0 -47.5 13t-34.5 30q-34 -43 -94 -43q-65 0 -116 46 t-51 134v162q0 35 -29 26l-3 -1q-26 33 -34 72q47 30 93 30q42 0 70.5 -26t28.5 -74v-197q0 -42 20.5 -60.5t48.5 -18.5q32 0 47 22z" />
<glyph unicode="&#xfa;" horiz-adv-x="517" d="M229 495q-1 0 -6.5 2.5t-7.5 4t-8 4.5t-9.5 5.5t-9 7t-9.5 9.5l-9 11.5t-9 13.5q62 99 75 116q17 23 44 23q21 0 39 -15q24 -20 24 -43q0 -19 -17 -39q-14 -19 -97 -100zM309 106v341q41 10 70 10l56 -5v-326q0 -40 28 -27l4 2q13 -11 23 -26t13 -25l3 -9 q-33 -50 -96 -50q-25 0 -47.5 13t-34.5 30q-34 -43 -94 -43q-65 0 -116 46t-51 134v162q0 35 -29 26l-3 -1q-26 33 -34 72q47 30 93 30q42 0 70.5 -26t28.5 -74v-197q0 -42 20.5 -60.5t48.5 -18.5q32 0 47 22z" />
<glyph unicode="&#xfb;" horiz-adv-x="517" d="M296 495l-50 56l-48 -55q-22 11 -40 25q-18 15 -24 23l-6 8l83 99q4 1 11 2.5t26 3.5t35 1l85 -104q-26 -36 -72 -59zM309 106v341q41 10 70 10l56 -5v-326q0 -40 28 -27l4 2q13 -11 23 -26t13 -25l3 -9q-33 -50 -96 -50q-25 0 -47.5 13t-34.5 30q-34 -43 -94 -43 q-65 0 -116 46t-51 134v162q0 35 -29 26l-3 -1q-26 33 -34 72q47 30 93 30q42 0 70.5 -26t28.5 -74v-197q0 -42 20.5 -60.5t48.5 -18.5q32 0 47 22z" />
<glyph unicode="&#xfc;" horiz-adv-x="517" d="M338 527q-23 0 -40 17t-17 40q0 24 17 41t40 17q24 0 41 -17t17 -41q0 -23 -17 -40t-41 -17zM162 527q-23 0 -40 17t-17 40q0 24 17 41t40 17q24 0 41 -17t17 -41q0 -23 -17 -40t-41 -17zM309 106v341q41 10 70 10l56 -5v-326q0 -40 28 -27l4 2q13 -11 23 -26t13 -25 l3 -9q-33 -50 -96 -50q-25 0 -47.5 13t-34.5 30q-34 -43 -94 -43q-65 0 -116 46t-51 134v162q0 35 -29 26l-3 -1q-26 33 -34 72q47 30 93 30q42 0 70.5 -26t28.5 -74v-197q0 -42 20.5 -60.5t48.5 -18.5q32 0 47 22z" />
<glyph unicode="&#xfd;" horiz-adv-x="431" d="M221 495q-1 0 -6.5 2.5t-7.5 4t-8 4.5t-9.5 5.5t-9 7t-9.5 9.5l-9 11.5t-9 13.5q62 99 75 116q17 23 44 23q21 0 39 -15q24 -20 24 -43q0 -19 -17 -39q-14 -19 -97 -100zM172 18l-123 315q-14 33 -42 25q-26 33 -34 72q47 30 93 30q62 0 83 -60l59 -169q8 -21 14 -47 q8 -25 10 -40l2 -15q10 57 27 102l87 233q28 0 53 -7t37 -15l11 -7l-166 -423q-57 -142 -188 -271q-24 12 -41.5 31.5t-23.5 33.5l-6 14q38 39 59 63t47 61t42 74z" />
<glyph unicode="&#xfe;" horiz-adv-x="522" d="M75 -214v818q-2 30 -32 25q-26 33 -34 72q44 28 95 28q42 0 69.5 -24.5t27.5 -75.5v-198q36 29 87 29q85 0 141.5 -61.5t56.5 -178.5q0 -60 -19.5 -106t-50.5 -71.5t-65 -38t-67 -12.5q-47 0 -83 29v-227q-39 -10 -73 -10zM201 341v-223q31 -29 74 -29q33 0 56.5 38 t23.5 97q0 72 -22.5 109t-60.5 37q-45 0 -71 -29z" />
<glyph unicode="&#xff;" horiz-adv-x="431" d="M309 527q-23 0 -40 17t-17 40q0 24 17 41t40 17q24 0 41 -17t17 -41q0 -23 -17 -40t-41 -17zM133 527q-23 0 -40 17t-17 40q0 24 17 41t40 17q24 0 41 -17t17 -41q0 -23 -17 -40t-41 -17zM172 18l-123 315q-14 33 -42 25q-26 33 -34 72q47 30 93 30q62 0 83 -60l59 -169 q8 -21 14 -47q8 -25 10 -40l2 -15q10 57 27 102l87 233q28 0 53 -7t37 -15l11 -7l-166 -423q-57 -142 -188 -271q-24 12 -41.5 31.5t-23.5 33.5l-6 14q38 39 59 63t47 61t42 74z" />
<glyph unicode="&#x152;" horiz-adv-x="832" d="M807 0h-385q-36 -8 -82 -8q-133 0 -217.5 95t-84.5 248t85 250t217 97q45 0 82 -11h391q3 -50 -18 -99h-278v-175h242q5 -47 -16 -96h-226v-202h306q4 -50 -16 -99zM390 99v476q-19 8 -50 8q-75 0 -121 -69.5t-46 -178.5q0 -108 45.5 -175t121.5 -67q26 0 50 6z" />
<glyph unicode="&#x153;" horiz-adv-x="762" d="M400 76q-51 -84 -149 -84q-89 0 -152 60t-63 169q0 108 66 173.5t149 65.5q96 0 148 -90q24 44 66.5 67t85.5 23q78 0 129.5 -54t51.5 -157q0 -35 -59 -56t-135 -21q-34 0 -63 6q9 -94 91 -94q27 0 47.5 18.5t29.5 35.5q24 0 46.5 -8.5t32.5 -16.5l11 -8 q-14 -41 -62.5 -77t-116.5 -36q-47 0 -88.5 21t-65.5 63zM476 260q32 -4 58 -4q78 0 78 14q0 34 -16 67t-44 33q-68 0 -76 -110zM335 221q0 60 -20 102t-64 42t-64.5 -42t-20.5 -102q0 -56 22 -97t63 -41t62.5 41t21.5 97z" />
<glyph unicode="&#x178;" horiz-adv-x="497" d="M186 0v301l-148 256q-6 10 -25 18.5t-34 8.5q-2 15 -2 32q0 30 8 43q40 17 86 17l34 -3l115 -208q7 -12 15 -30.5t13 -31.5l5 -13q18 49 33 75l121 219q28 -3 54 -13q26 -11 38 -19l12 -8l-197 -340v-298q-37 -11 -70 -11zM335 757q-23 0 -40 17t-17 40q0 24 17 41t40 17 q24 0 41 -17t17 -41q0 -23 -17 -40t-41 -17zM156 757q-23 0 -40 17t-17 40q0 24 17 41t40 17q24 0 41 -17t17 -41q0 -23 -17 -40t-41 -17z" />
<glyph unicode="&#x2c6;" horiz-adv-x="297" d="M216 720l-70 62l-69 -61q-19 12 -33 28q-16 16 -20 26l-4 10l92 91q4 1 10.5 2.5t25 3t33.5 0.5l96 -96q-14 -35 -61 -66z" />
<glyph unicode="&#x2dc;" horiz-adv-x="352" d="M332 801q-4 -7 -11 -18t-34.5 -29.5t-60.5 -18.5q-30 0 -56.5 17.5t-42.5 17.5q-9 0 -21 -8q-11 -6 -18 -14l-7 -8q-43 13 -61 52q4 8 12.5 19.5t37 31t60.5 19.5q25 0 51.5 -17.5t41.5 -17.5q11 0 25 7q12 6 20 13l8 7q40 -13 56 -53z" />
<glyph unicode="&#x2000;" horiz-adv-x="454" />
<glyph unicode="&#x2001;" horiz-adv-x="908" />
<glyph unicode="&#x2002;" horiz-adv-x="454" />
<glyph unicode="&#x2003;" horiz-adv-x="908" />
<glyph unicode="&#x2004;" horiz-adv-x="302" />
<glyph unicode="&#x2005;" horiz-adv-x="227" />
<glyph unicode="&#x2006;" horiz-adv-x="151" />
<glyph unicode="&#x2007;" horiz-adv-x="151" />
<glyph unicode="&#x2008;" horiz-adv-x="113" />
<glyph unicode="&#x2009;" horiz-adv-x="181" />
<glyph unicode="&#x200a;" horiz-adv-x="50" />
<glyph unicode="&#x2010;" horiz-adv-x="350" d="M295 206h-248q-6 54 10 104h246q2 -12 2 -31q0 -41 -10 -73z" />
<glyph unicode="&#x2011;" horiz-adv-x="350" d="M295 206h-248q-6 54 10 104h246q2 -12 2 -31q0 -41 -10 -73z" />
<glyph unicode="&#x2012;" horiz-adv-x="350" d="M295 206h-248q-6 54 10 104h246q2 -12 2 -31q0 -41 -10 -73z" />
<glyph unicode="&#x2013;" horiz-adv-x="540" d="M485 216h-438q-6 45 8 94h436q3 -14 3 -35q0 -32 -9 -59z" />
<glyph unicode="&#x2014;" horiz-adv-x="790" d="M735 219h-688q-7 43 8 93h688q8 -43 -8 -93z" />
<glyph unicode="&#x2018;" horiz-adv-x="218" d="M133 573q21 -6 32 -22.5t11 -34.5q0 -29 -21.5 -48.5t-52.5 -19.5q-35 0 -53.5 26.5t-18.5 60.5q0 87 109 148q34 -24 47 -67q-42 -25 -53 -43z" />
<glyph unicode="&#x2019;" horiz-adv-x="218" d="M79 448q-34 24 -47 67q42 25 53 43q-21 6 -32 22.5t-11 34.5q0 29 21.5 48.5t52.5 19.5q35 0 53.5 -26.5t18.5 -60.5q0 -87 -109 -148z" />
<glyph unicode="&#x201a;" horiz-adv-x="218" d="M79 -106q-34 24 -47 67q42 25 53 43q-21 6 -32 22.5t-11 34.5q0 29 21.5 48.5t52.5 19.5q35 0 53.5 -26.5t18.5 -60.5q0 -87 -109 -148z" />
<glyph unicode="&#x201c;" horiz-adv-x="404" d="M319 573q21 -6 32 -22.5t11 -34.5q0 -29 -21.5 -48.5t-52.5 -19.5q-35 0 -53.5 26.5t-18.5 60.5q0 87 109 148q34 -24 47 -67q-42 -25 -53 -43zM133 573q21 -6 32 -22.5t11 -34.5q0 -29 -21.5 -48.5t-52.5 -19.5q-35 0 -53.5 26.5t-18.5 60.5q0 87 109 148q34 -24 47 -67 q-42 -25 -53 -43z" />
<glyph unicode="&#x201d;" horiz-adv-x="409" d="M270 448q-34 24 -47 67q42 25 53 43q-21 6 -32 22.5t-11 34.5q0 29 21.5 48.5t52.5 19.5q35 0 53.5 -26.5t18.5 -60.5q0 -87 -109 -148zM79 448q-34 24 -47 67q42 25 53 43q-21 6 -32 22.5t-11 34.5q0 29 21.5 48.5t52.5 19.5q35 0 53.5 -26.5t18.5 -60.5 q0 -87 -109 -148z" />
<glyph unicode="&#x201e;" horiz-adv-x="406" d="M220 -39q42 25 53 43q-21 6 -32 22.5t-11 34.5q0 29 21 48.5t52 19.5q35 0 54 -26.5t19 -60.5q0 -87 -109 -148q-34 24 -47 67zM32 -39q42 25 53 43q-21 6 -32 22.5t-11 34.5q0 29 21 48.5t52 19.5q35 0 54 -26.5t19 -60.5q0 -87 -109 -148q-34 24 -47 67z" />
<glyph unicode="&#x2022;" horiz-adv-x="263" d="M131 157q-42 0 -71.5 29.5t-29.5 71.5t29.5 72t71.5 30t72 -30t30 -72t-30 -71.5t-72 -29.5z" />
<glyph unicode="&#x2026;" horiz-adv-x="552" d="M276 -9q-28 0 -48 19.5t-20 48.5t20 48.5t48 19.5t48 -19.5t20 -48.5t-20 -48.5t-48 -19.5zM443 -9q-29 0 -48.5 19.5t-19.5 48.5t19.5 48.5t48.5 19.5t48.5 -19.5t19.5 -48.5t-19.5 -48.5t-48.5 -19.5zM109 -9q-29 0 -48.5 19.5t-19.5 48.5t19.5 48.5t48.5 19.5 t48.5 -19.5t19.5 -48.5t-19.5 -48.5t-48.5 -19.5z" />
<glyph unicode="&#x202f;" horiz-adv-x="181" />
<glyph unicode="&#x2039;" horiz-adv-x="301" d="M170 14l-118 203l120 210q60 -21 89 -55l-88 -152l88 -150q-32 -36 -91 -56z" />
<glyph unicode="&#x203a;" horiz-adv-x="301" d="M266 223l-120 -209q-60 20 -88 54l87 152l-87 151q31 35 91 56z" />
<glyph unicode="&#x205f;" horiz-adv-x="227" />
<glyph unicode="&#x20ac;" horiz-adv-x="467" d="M269 135h-54q8 -17 25 -30t36 -13q35 1 50 36q61 2 106 -22q-11 -43 -49 -78.5t-107 -35.5t-122 36.5t-71 106.5h-46q-2 36 12 69h26q-1 8 -0.5 16t0.5 14v5h-38q-2 37 12 68h33q18 70 72 107t117 37q89 0 144 -47q4 -48 -7 -95q-15 -3 -31 -3q-34 0 -67 8q0 41 -40 41 q-19 0 -35 -14.5t-22 -33.5h67q3 -36 -11 -68h-67q-1 -5 -1 -12q0 -15 1 -23h78q3 -35 -11 -69z" />
<glyph unicode="&#x2122;" horiz-adv-x="798" d="M660 311l-21 171l-3 28l-9 -28l-57 -169l-51 -3q-66 196 -71 212l-3 -30l-21 -182q-30 -3 -71 2l31 262q-1 11 -8 20.5t-13 9.5q-4 27 3 54q31 10 78 10l38 -2l58 -175l9 -29q10 34 68 200q12 4 37 4l43 -3l30 -264q2 -15 7.5 -21t11.5 -6t11 -5t5 -18q0 -14 -4 -35 q-19 -7 -48 -7zM137 311v283h-104q-1 45 9 70h281q2 -44 -9 -70h-90v-280q-14 -4 -41 -4z" />
<glyph unicode="&#xe000;" horiz-adv-x="460" d="M0 460h460v-460h-460v460z" />
<glyph unicode="&#xfb01;" horiz-adv-x="585" d="M442 539q-29 0 -49 20t-20 49t20 49.5t49 20.5t49.5 -20.5t20.5 -49.5t-20.5 -49t-49.5 -20zM384 96v237q0 35 -29 26l-3 -1q-26 33 -34 72q47 30 92 30q42 0 70 -26t28 -74v-234q0 -33 19 -30l13 5q13 -11 23 -26t13 -25l3 -9q-3 -5 -10.5 -13.5t-33 -22t-55.5 -13.5 q-43 0 -69.5 31.5t-26.5 72.5zM77 0v357h-68q-2 43 14 95h54v98q0 92 48 135t117 43q52 0 87 -28.5t45 -59.5q-34 -28 -92 -35q-15 22 -41 22q-39 0 -39 -76v-99h133q3 -42 -16 -95h-117v-351q-39 -11 -70 -11z" />
<glyph unicode="&#xfb02;" horiz-adv-x="572" d="M376 96v505q0 35 -29 26l-3 -1q-26 33 -34 72q47 30 92 30q42 0 70 -26t28 -74v-502q0 -40 28 -27l4 2q13 -11 23 -26t13 -25l3 -9q-3 -5 -10.5 -13.5t-33 -22t-55.5 -13.5q-43 0 -69.5 31.5t-26.5 72.5zM77 0v357h-68q-2 43 14 95h54v98q0 92 48 135t117 43 q52 0 87 -28.5t45 -59.5q-34 -28 -92 -35q-15 22 -41 22q-39 0 -39 -76v-99h133q3 -42 -16 -95h-117v-351q-39 -11 -70 -11z" />
<glyph unicode="&#xfb03;" horiz-adv-x="894" d="M751 539q-29 0 -49 20t-20 49t20 49.5t49 20.5t49.5 -20.5t20.5 -49.5t-20.5 -49t-49.5 -20zM693 96v237q0 35 -29 26l-3 -1q-26 33 -34 72q47 30 92 30q42 0 70 -26t28 -74v-234q0 -33 19 -30l13 5q13 -11 23 -26t13 -25l3 -9q-3 -5 -10.5 -13.5t-33 -22t-55.5 -13.5 q-43 0 -69.5 31.5t-26.5 72.5zM386 0v357h-68q-2 43 14 95h54v98q0 92 48 135t117 43q52 0 87 -28.5t45 -59.5q-34 -28 -92 -35q-15 22 -41 22q-39 0 -39 -76v-99h133q3 -42 -16 -95h-117v-351q-39 -11 -70 -11zM77 0v357h-68q-2 43 14 95h54v98q0 92 48 135t117 43 q52 0 87 -28.5t45 -59.5q-34 -28 -92 -35q-15 22 -41 22q-39 0 -39 -76v-99h133q3 -42 -16 -95h-117v-351q-39 -11 -70 -11z" />
<glyph unicode="&#xfb04;" horiz-adv-x="881" d="M685 96v505q0 35 -29 26l-3 -1q-26 33 -34 72q47 30 92 30q42 0 70 -26t28 -74v-502q0 -40 28 -27l4 2q13 -11 23 -26t13 -25l3 -9q-3 -5 -10.5 -13.5t-33 -22t-55.5 -13.5q-43 0 -69.5 31.5t-26.5 72.5zM386 0v357h-68q-2 43 14 95h54v98q0 92 48 135t117 43 q52 0 87 -28.5t45 -59.5q-34 -28 -92 -35q-15 22 -41 22q-39 0 -39 -76v-99h133q3 -42 -16 -95h-117v-351q-39 -11 -70 -11zM77 0v357h-68q-2 43 14 95h54v98q0 92 48 135t117 43q52 0 87 -28.5t45 -59.5q-34 -28 -92 -35q-15 22 -41 22q-39 0 -39 -76v-99h133 q3 -42 -16 -95h-117v-351q-39 -11 -70 -11z" />
</font>
</defs>
</svg>
